<?xml version="1.0" standalone="no"?>
<!DOCTYPE svg PUBLIC "-//W3C//DTD SVG 20010904//EN"
 "http://www.w3.org/TR/2001/REC-SVG-20010904/DTD/svg10.dtd">
<svg version="1.0" xmlns="http://www.w3.org/2000/svg"
 width="1080.000000pt" height="1080.000000pt" viewBox="0 0 1080.000000 1080.000000"
 preserveAspectRatio="xMidYMid meet">
<metadata>
Created by potrace 1.14, written by Peter Selinger 2001-2017
</metadata>
<g transform="translate(0.000000,1080.000000) scale(0.100000,-0.100000)"
fill="#000000" stroke="none">
<path d="M3708 10793 c-22 -5 -24 -33 -3 -33 8 0 15 -4 15 -10 0 -5 -13 -10
-30 -10 -29 0 -30 -2 -30 -45 0 -44 -15 -60 -26 -30 -4 8 -17 15 -29 15 -13 0
-25 6 -28 13 -2 7 -8 8 -13 3 -5 -5 -4 -11 4 -13 6 -3 12 -16 12 -29 0 -19 -5
-24 -25 -24 -20 0 -25 5 -25 24 0 13 6 27 13 29 20 9 -14 28 -43 25 -21 -3
-25 -8 -25 -35 0 -40 -6 -45 -52 -48 -21 -1 -48 -3 -60 -4 -31 -1 -29 -17 2
-25 18 -5 25 -13 25 -31 0 -16 -6 -25 -15 -25 -8 0 -15 7 -15 15 0 11 -12 15
-49 15 -27 0 -51 4 -53 10 -1 5 -38 10 -81 11 -60 2 -81 -1 -87 -11 -8 -13
-11 -12 -23 4 -11 16 -22 18 -63 13 -26 -3 -50 -10 -52 -16 -2 -6 -21 -11 -43
-11 -28 0 -39 -4 -39 -15 0 -8 -7 -15 -15 -15 -8 0 -15 -7 -15 -15 0 -8 -7
-15 -16 -15 -12 0 -15 -6 -10 -24 9 -37 -5 -116 -20 -116 -8 0 -14 -5 -14 -11
0 -5 -11 1 -24 15 -13 15 -29 26 -35 26 -15 0 -41 25 -41 38 0 5 -11 13 -24
16 -14 3 -26 16 -30 30 -7 28 -28 38 -62 30 -26 -7 -33 -24 -9 -24 19 0 19
-27 0 -46 -8 -9 -15 -22 -15 -29 0 -7 7 -20 15 -29 8 -8 15 -22 15 -30 0 -9 5
-16 11 -16 16 0 39 -26 39 -44 0 -12 -6 -15 -25 -10 -19 5 -25 2 -25 -10 0
-19 -50 -23 -51 -3 0 6 -2 32 -4 57 -2 24 -8 46 -14 48 -6 2 -11 12 -11 23 0
10 -5 19 -10 19 -13 0 -70 -57 -70 -70 0 -6 -6 -10 -14 -10 -8 0 -17 -11 -20
-25 -4 -14 -11 -25 -16 -25 -6 0 -10 -7 -10 -15 0 -8 -7 -15 -15 -15 -12 0
-15 -13 -15 -55 l0 -55 -55 0 c-42 0 -55 -3 -55 -15 0 -11 -11 -15 -40 -15
-29 0 -40 -4 -40 -15 0 -11 -11 -15 -40 -15 -36 0 -40 -2 -40 -25 0 -14 -6
-25 -14 -25 -21 0 -66 -47 -66 -70 0 -11 -7 -20 -15 -20 -8 0 -15 -7 -15 -15
0 -9 -9 -15 -25 -15 -14 0 -28 7 -31 15 -10 24 -43 18 -50 -9 -3 -14 -12 -27
-20 -30 -8 -3 -14 -12 -14 -21 0 -8 -4 -15 -10 -15 -5 0 -12 -11 -16 -25 -3
-14 -10 -25 -15 -25 -5 0 -9 -11 -9 -25 0 -20 -5 -25 -25 -25 -20 0 -25 5 -25
25 0 20 -5 25 -25 25 -25 0 -65 -27 -65 -43 0 -12 -27 -37 -39 -37 -6 0 -11
-7 -11 -15 0 -10 -11 -15 -35 -15 -40 0 -75 -28 -75 -60 0 -11 -7 -23 -15 -26
-8 -4 -15 -17 -15 -30 0 -21 -4 -24 -40 -24 -29 0 -40 -4 -40 -15 0 -8 -5 -15
-11 -15 -7 0 -22 -11 -35 -25 -13 -14 -32 -25 -43 -25 -11 0 -26 -7 -35 -15
-8 -8 -19 -15 -24 -15 -6 0 -13 -14 -17 -31 -6 -28 -10 -30 -42 -27 -43 4 -58
-19 -17 -24 38 -4 41 -25 5 -33 -17 -4 -31 -10 -31 -15 0 -4 -54 -11 -120 -15
-66 -4 -120 -11 -120 -16 0 -12 -517 -12 -522 -1 -2 5 -76 12 -165 16 l-163 6
0 -630 c0 -413 3 -630 10 -630 6 0 10 -7 10 -15 0 -8 -4 -15 -10 -15 -7 0 -10
-255 -10 -745 0 -707 8 -918 24 -603 4 78 11 145 16 148 6 3 13 72 16 153 4
81 10 147 14 147 4 0 10 57 12 127 3 83 9 128 17 131 7 2 11 40 11 113 0 110
14 147 26 69 4 -22 10 -40 15 -40 5 0 9 -133 9 -295 0 -256 -2 -295 -15 -295
-11 0 -15 -12 -15 -45 0 -25 -4 -45 -10 -45 -6 0 -10 -66 -10 -179 0 -150 -2
-180 -15 -185 -13 -5 -15 -89 -15 -671 0 -529 3 -667 13 -671 8 -3 13 -33 15
-97 2 -50 7 -93 13 -95 5 -2 9 -10 9 -18 0 -8 6 -14 14 -14 9 0 15 -19 19 -57
3 -32 11 -59 17 -61 5 -2 10 -25 10 -52 0 -26 7 -64 15 -83 8 -20 15 -55 15
-77 0 -22 5 -40 10 -40 6 0 10 -18 10 -40 0 -22 -4 -40 -10 -40 -5 0 -10 -7
-10 -15 0 -8 4 -15 9 -15 5 0 12 -23 16 -51 8 -59 29 -89 62 -89 14 0 23 -6
23 -15 0 -8 7 -15 15 -15 8 0 15 -4 15 -10 0 -5 -7 -10 -15 -10 -8 0 -15 -7
-15 -15 0 -8 7 -15 15 -15 8 0 15 -7 15 -15 0 -13 -27 -15 -180 -15 l-180 0 0
-125 0 -125 219 0 c182 0 222 -3 235 -15 8 -8 19 -15 25 -15 6 0 11 -7 11 -15
0 -8 7 -15 16 -15 14 0 15 -12 9 -98 -13 -186 -15 -270 -21 -864 -4 -329 -11
-598 -15 -598 -5 0 -9 -34 -9 -75 0 -43 4 -75 10 -75 6 0 10 -25 10 -55 0 -52
1 -55 26 -55 35 0 55 23 61 70 3 22 9 40 14 40 4 0 9 46 11 103 4 97 25 207
40 207 3 0 9 13 13 30 9 42 24 37 31 -10 7 -41 24 -56 24 -20 0 22 36 67 46
58 3 -4 8 -25 11 -47 3 -23 9 -41 14 -41 4 0 10 -13 14 -30 9 -41 41 -41 50 0
16 71 25 20 25 -137 0 -93 3 -185 6 -206 15 -85 23 -24 26 195 2 174 6 232 16
236 8 2 12 26 12 73 0 67 1 69 25 69 16 0 25 6 25 15 0 8 -4 15 -10 15 -5 0
-10 18 -10 40 0 22 4 40 9 40 4 0 11 19 14 42 3 24 11 44 16 46 6 2 11 15 11
28 0 19 -5 24 -27 24 -16 0 -23 4 -16 8 6 4 14 28 18 55 4 26 11 47 15 47 5 0
10 49 12 108 l3 109 38 35 c20 19 37 40 37 47 0 6 7 11 15 11 10 0 15 -10 15
-29 0 -28 22 -61 39 -61 10 0 21 50 21 91 0 16 5 29 10 29 6 0 10 6 10 14 0 8
6 21 14 28 24 25 32 120 20 271 -5 66 -3 77 10 77 12 0 16 -10 16 -40 0 -22 5
-40 10 -40 6 0 10 -13 10 -30 0 -20 5 -30 15 -30 8 0 15 -7 15 -15 0 -9 9 -15
25 -15 15 0 25 -6 25 -14 0 -8 13 -27 29 -43 35 -36 44 -61 47 -138 3 -92 16
-185 24 -185 4 0 11 -16 14 -35 4 -19 11 -35 15 -35 5 0 11 -18 15 -40 3 -22
11 -40 16 -40 6 0 10 -14 10 -32 0 -38 30 -107 48 -108 6 0 12 -7 12 -15 0 -8
5 -15 10 -15 6 0 10 -18 10 -40 0 -29 4 -40 15 -40 8 0 15 -5 15 -10 0 -6 9
-20 20 -32 l20 -22 20 22 c11 12 20 26 20 32 0 5 11 10 24 10 26 0 36 -21 36
-77 0 -17 4 -33 10 -35 5 -1 12 -36 16 -75 4 -40 11 -73 15 -73 5 0 9 -36 9
-80 0 -64 3 -80 15 -80 11 0 15 -12 15 -45 0 -25 4 -45 9 -45 5 0 12 -22 16
-50 4 -27 11 -50 16 -50 5 0 9 5 9 10 0 6 8 10 18 11 14 0 14 2 -3 9 -17 7
-17 9 -2 9 10 1 17 9 17 20 0 11 7 26 15 35 8 8 15 32 15 54 0 22 5 42 11 44
6 2 11 48 13 121 1 73 6 121 13 125 6 4 13 18 14 32 3 21 10 26 41 28 31 3 38
7 43 33 4 16 10 29 15 29 4 0 10 18 14 40 3 22 11 40 16 40 6 0 10 31 10 70 0
56 3 70 15 70 8 0 15 -7 15 -15 0 -9 9 -15 25 -15 28 0 28 -1 26 -100 -2 -86
9 -103 44 -66 17 18 31 25 44 21 13 -4 20 0 24 15 4 15 13 20 40 20 29 0 36
-4 41 -26 4 -14 16 -35 26 -47 22 -23 26 -37 10 -37 -6 0 -10 -30 -10 -70 0
-40 4 -70 10 -70 6 0 10 -13 10 -30 0 -16 -4 -30 -10 -30 -6 0 -10 -34 -10
-81 0 -73 2 -84 24 -104 13 -12 27 -32 31 -43 5 -17 14 -22 40 -22 22 0 38 -6
44 -18 8 -12 13 -14 18 -5 5 6 21 15 36 18 15 4 27 14 27 21 0 17 47 8 68 -13
7 -7 17 -13 22 -13 5 0 12 -9 15 -21 11 -34 38 -59 62 -59 13 0 23 -4 23 -10
0 -15 33 -50 47 -50 7 0 13 -4 13 -10 0 -5 11 -10 25 -10 16 0 25 -6 25 -15 0
-9 9 -15 25 -15 14 0 25 -4 25 -10 0 -5 7 -10 15 -10 9 0 15 9 15 25 0 14 -4
25 -10 25 -5 0 -10 18 -10 40 0 26 -5 40 -13 40 -20 0 -47 38 -47 65 0 14 -4
25 -9 25 -5 0 -13 25 -16 55 -4 30 -11 55 -15 55 -4 0 -10 30 -13 67 -4 38
-11 69 -17 71 -5 2 -10 30 -10 62 0 36 -5 60 -12 62 -6 2 -13 30 -15 63 -2 33
-7 62 -12 65 -5 3 -13 18 -16 33 -4 15 -13 27 -21 27 -8 0 -14 4 -14 9 0 5
-10 13 -22 17 -12 3 -28 13 -36 20 -7 8 -22 14 -33 14 -10 0 -19 5 -19 10 0 6
-11 10 -24 10 -14 0 -31 7 -40 15 -8 8 -26 15 -40 15 -16 0 -26 6 -26 15 0 8
-7 15 -15 15 -8 0 -15 7 -15 15 0 8 -5 15 -11 15 -14 0 -69 55 -69 69 0 6 -7
11 -15 11 -8 0 -15 5 -15 11 0 7 -11 22 -25 35 -14 13 -25 32 -25 44 0 11 -7
20 -15 20 -9 0 -15 9 -15 24 0 13 -7 26 -15 30 -8 3 -15 17 -15 31 0 14 -4 25
-10 25 -5 0 -10 13 -10 29 0 16 -7 36 -15 45 -8 8 -15 32 -15 53 0 21 -7 47
-15 57 -9 12 -15 42 -15 73 0 29 -4 53 -9 53 -6 0 -13 32 -17 70 -3 39 -11 70
-15 70 -5 0 -9 20 -9 44 0 26 -6 51 -15 60 -9 9 -15 34 -15 66 0 32 -6 57 -15
66 -9 9 -15 34 -15 59 0 26 -5 45 -12 47 -19 7 -19 379 0 385 6 3 12 16 12 29
0 14 7 27 15 30 8 4 15 16 15 29 0 16 7 25 25 29 14 4 25 11 25 16 0 6 5 10
11 10 6 0 17 7 25 15 21 21 104 21 104 0 0 -8 7 -15 15 -15 9 0 15 -9 15 -25
0 -14 5 -25 10 -25 6 0 10 -20 10 -45 0 -25 -4 -45 -10 -45 -5 0 -10 11 -10
24 0 29 -18 44 -26 22 -4 -11 -19 -16 -45 -16 -28 0 -39 -4 -39 -15 0 -8 -7
-15 -15 -15 -8 0 -15 -5 -15 -11 0 -7 -11 -22 -25 -35 -23 -21 -25 -30 -25
-114 0 -49 4 -90 9 -90 5 0 12 -25 16 -55 3 -30 11 -55 16 -55 5 0 9 -26 9
-58 0 -36 6 -66 15 -78 8 -11 15 -41 15 -71 0 -28 5 -53 11 -55 7 -2 13 -42
17 -96 2 -51 8 -92 12 -92 4 0 11 -25 15 -55 3 -30 11 -55 16 -55 5 0 9 -18 9
-40 0 -27 5 -43 15 -46 8 -4 15 -17 15 -30 0 -13 4 -24 9 -24 5 0 12 -13 16
-30 4 -16 11 -30 16 -30 5 0 9 -7 9 -15 0 -8 7 -15 15 -15 9 0 15 -9 15 -25 0
-16 6 -25 15 -25 8 0 15 -7 15 -15 0 -8 7 -15 15 -15 8 0 15 -7 15 -15 0 -8 5
-15 10 -15 6 0 10 25 10 55 0 30 -4 55 -10 55 -5 0 -10 7 -10 15 0 8 -7 15
-15 15 -10 0 -15 10 -15 30 0 20 -5 30 -15 30 -9 0 -15 9 -15 25 0 14 -4 25
-9 25 -5 0 -12 14 -16 30 -4 17 -10 30 -15 30 -4 0 -10 23 -12 52 -3 29 -11
54 -17 56 -8 3 -11 63 -11 198 0 166 -2 194 -15 194 -10 0 -15 10 -15 30 0 21
-5 30 -16 30 -14 0 -15 10 -9 82 4 46 11 85 15 88 4 3 10 15 14 28 4 12 12 22
17 22 5 0 9 5 9 11 0 6 7 17 15 25 8 9 15 31 15 50 0 19 5 34 10 34 6 0 10
-13 10 -30 0 -20 5 -30 15 -30 10 0 15 -10 15 -30 0 -20 5 -30 15 -30 10 0 15
-10 15 -30 0 -16 4 -30 10 -30 5 0 12 -11 16 -25 3 -14 10 -25 15 -25 5 0 9
-11 9 -25 0 -14 7 -28 15 -31 8 -4 15 -17 15 -30 0 -15 6 -24 15 -24 9 0 15
-9 15 -24 0 -13 7 -26 15 -30 8 -3 15 -15 15 -26 0 -18 15 -36 67 -80 7 -5 17
-10 23 -10 5 0 10 -7 10 -15 0 -8 7 -15 15 -15 8 0 15 -7 15 -15 0 -8 7 -15
15 -15 8 0 15 -4 15 -10 0 -5 12 -13 27 -16 15 -4 34 -13 41 -21 7 -7 20 -13
28 -13 8 0 14 -4 14 -10 0 -5 11 -10 25 -10 16 0 25 -6 25 -15 0 -10 10 -15
29 -15 16 0 31 -5 33 -11 2 -6 25 -13 51 -16 26 -3 47 -9 47 -13 0 -4 26 -11
58 -15 31 -4 59 -11 62 -15 3 -5 101 -12 218 -16 116 -4 212 -11 212 -15 0 -5
32 -9 70 -9 57 0 70 -3 70 -16 0 -14 16 -15 122 -12 86 2 123 7 126 16 2 8 25
12 67 12 47 0 64 4 69 15 3 9 19 15 41 15 19 0 35 4 35 9 0 5 14 12 30 16 17
4 30 11 30 16 0 5 11 9 25 9 14 0 28 7 31 15 4 8 17 15 30 15 15 0 24 6 24 15
0 8 7 15 15 15 8 0 15 7 15 15 0 8 5 15 11 15 14 0 39 25 39 39 0 6 7 11 15
11 8 0 15 5 15 10 0 6 11 21 25 34 14 13 25 28 25 35 0 6 7 11 15 11 8 0 15 7
15 15 0 8 4 15 10 15 5 0 12 11 16 25 3 14 12 25 20 25 8 0 14 5 14 11 0 7 11
22 25 35 14 13 25 28 25 34 0 5 7 10 15 10 8 0 15 5 15 11 0 7 11 22 25 35 14
13 25 30 25 39 0 9 7 18 15 21 8 4 15 10 15 16 0 5 7 16 15 24 8 9 15 24 15
35 0 10 4 19 9 19 5 0 12 11 15 25 4 14 11 25 16 25 6 0 10 13 10 29 0 16 7
36 15 45 8 8 15 18 15 22 0 4 11 17 25 30 14 13 25 28 25 34 0 5 7 10 15 10 8
0 15 5 15 10 0 6 7 10 15 10 8 0 15 7 15 15 0 12 14 15 65 15 37 0 65 -4 65
-10 0 -5 6 -10 13 -10 7 0 20 -8 29 -17 9 -10 27 -27 40 -38 14 -12 28 -37 32
-58 4 -20 11 -37 16 -37 6 0 10 -10 10 -22 0 -13 7 -32 15 -42 8 -11 15 -32
15 -48 0 -15 4 -28 9 -28 5 0 11 -18 15 -40 3 -22 11 -40 16 -40 6 0 10 -7 10
-15 0 -8 7 -15 15 -15 8 0 15 -7 15 -15 0 -8 4 -15 9 -15 5 0 13 -10 17 -22 4
-13 10 -25 14 -28 4 -3 10 -22 13 -42 4 -29 2 -40 -11 -48 -14 -8 -14 -11 -4
-18 8 -5 16 -28 19 -51 3 -22 10 -41 14 -41 5 0 9 -18 9 -40 0 -27 5 -43 15
-46 10 -4 15 -20 15 -45 0 -21 4 -39 10 -39 5 0 12 -11 16 -25 3 -14 10 -25
15 -25 5 0 9 -7 9 -15 0 -8 7 -15 15 -15 8 0 15 -7 15 -15 0 -8 7 -15 15 -15
8 0 15 -7 15 -15 0 -8 7 -15 15 -15 8 0 15 -4 15 -10 0 -5 11 -12 25 -16 14
-3 25 -12 25 -20 0 -8 7 -14 15 -14 8 0 15 -4 15 -10 0 -5 7 -10 15 -10 8 0
15 -7 15 -15 0 -8 5 -15 11 -15 14 0 31 -18 48 -52 8 -16 20 -28 28 -28 9 0
13 -13 13 -40 0 -37 -2 -39 -37 -46 -52 -10 -387 4 -391 16 -5 13 -92 13 -92
0 0 -5 -11 -10 -24 -10 -14 0 -31 -7 -40 -15 -8 -8 -19 -15 -25 -15 -6 0 -11
-7 -11 -15 0 -9 -9 -15 -25 -15 -14 0 -28 -7 -31 -15 -4 -8 -17 -15 -31 -15
-13 0 -31 -7 -39 -15 -10 -10 -35 -15 -69 -15 -29 0 -55 -5 -57 -11 -4 -13
-118 -15 -127 -2 -3 6 -35 12 -70 15 -37 3 -67 10 -69 16 -2 7 -21 12 -43 12
-28 0 -39 4 -39 15 0 12 -16 15 -85 15 -50 0 -85 4 -85 10 0 6 -7 10 -15 10
-8 0 -15 -4 -15 -10 0 -5 -18 -10 -40 -10 -29 0 -40 -4 -40 -15 0 -10 -10 -15
-30 -15 -20 0 -30 -5 -30 -15 0 -8 -4 -15 -10 -15 -5 0 -10 -7 -10 -15 0 -8 7
-15 15 -15 27 0 16 -18 -15 -25 -26 -6 -30 -10 -24 -28 4 -12 11 -23 15 -25 5
-2 9 -17 9 -33 0 -19 5 -29 15 -29 8 0 15 -5 15 -11 0 -16 25 -37 54 -45 14
-3 26 -10 26 -15 0 -5 7 -9 15 -9 8 0 15 4 15 9 0 5 22 11 49 13 31 3 57 13
72 26 l23 22 -22 20 c-12 11 -32 20 -46 20 -13 0 -31 7 -40 15 -8 8 -26 15
-40 15 -14 0 -26 4 -26 9 0 25 400 27 408 2 2 -6 10 -11 18 -11 8 0 14 -7 14
-15 0 -9 9 -15 25 -15 14 0 25 -4 25 -9 0 -5 11 -12 25 -15 14 -4 25 -10 25
-15 0 -5 15 -13 33 -16 17 -4 34 -11 37 -16 8 -11 238 -23 283 -15 21 4 37 12
37 17 0 14 55 69 69 69 6 0 11 7 11 15 0 9 9 15 24 15 13 0 26 5 28 11 2 6 26
13 53 16 28 3 52 9 55 14 3 4 52 8 110 9 146 2 140 4 140 -25 0 -20 -5 -25
-24 -25 -13 0 -26 -7 -30 -15 -3 -8 -17 -15 -31 -15 -14 0 -25 -4 -25 -10 0
-5 -25 -10 -55 -10 -30 0 -55 5 -55 10 0 6 -25 10 -55 10 -30 0 -55 -4 -55 -9
0 -5 -18 -11 -40 -15 -22 -3 -40 -11 -40 -16 0 -6 -7 -10 -15 -10 -8 0 -15 -6
-15 -14 0 -8 -7 -16 -15 -20 -26 -10 -16 -26 15 -26 20 0 30 -5 30 -15 0 -11
12 -15 45 -15 25 0 45 -4 45 -9 0 -5 47 -12 105 -16 58 -4 105 -11 105 -16 0
-5 27 -9 60 -9 33 0 60 4 60 10 0 6 23 10 50 10 38 0 50 4 50 15 0 8 7 15 15
15 8 0 15 9 15 20 0 12 11 31 23 43 13 12 27 34 31 49 3 16 11 28 16 28 6 0
10 60 10 155 0 85 -4 155 -9 155 -5 0 -12 25 -16 55 -3 30 -11 55 -16 55 -5 0
-9 25 -9 55 0 30 5 55 10 55 6 0 10 -7 10 -15 0 -11 11 -15 40 -15 22 0 40 -4
40 -10 0 -5 9 -10 19 -10 11 0 26 -7 35 -15 9 -9 34 -15 65 -15 39 0 51 -4 51
-15 0 -11 11 -15 40 -15 22 0 40 -4 40 -10 0 -5 18 -13 40 -16 22 -4 40 -10
40 -15 0 -5 6 -9 14 -9 8 0 28 -13 44 -30 17 -16 38 -30 46 -30 9 0 16 -7 16
-15 0 -8 5 -15 10 -15 6 0 10 -7 10 -15 0 -8 7 -15 15 -15 10 0 15 -10 15 -30
0 -16 4 -30 10 -30 5 0 12 -11 16 -25 3 -14 10 -25 15 -25 5 0 9 -11 9 -24 0
-17 7 -26 24 -30 14 -3 26 -16 30 -31 4 -14 11 -25 16 -25 6 0 10 -7 10 -15 0
-8 7 -15 15 -15 12 0 15 -16 15 -85 0 -49 -4 -85 -10 -85 -5 0 -13 -18 -16
-40 -4 -22 -10 -40 -14 -40 -4 0 -10 -18 -14 -40 -3 -22 -11 -40 -16 -40 -6 0
-10 -13 -10 -30 0 -25 -4 -30 -24 -30 -17 0 -26 -7 -30 -25 -4 -15 -16 -27
-31 -31 -14 -3 -25 -10 -25 -15 0 -5 -13 -9 -29 -9 -16 0 -36 -7 -45 -15 -8
-8 -19 -15 -25 -15 -6 0 -11 -6 -11 -14 0 -8 -5 -16 -12 -18 -7 -3 -13 -43
-16 -111 -2 -59 -8 -107 -13 -107 -4 0 -10 -14 -14 -30 -4 -17 -11 -30 -16
-30 -5 0 -9 -7 -9 -15 0 -8 -5 -15 -11 -15 -6 0 -18 -7 -26 -16 -16 -16 -65
-12 -71 7 -2 5 -21 9 -43 9 -28 0 -39 4 -39 15 0 8 -7 15 -15 15 -8 0 -15 7
-15 15 0 9 -9 15 -25 15 -16 0 -25 6 -25 15 0 8 -7 15 -16 15 -8 0 -22 6 -29
12 -33 30 -45 38 -55 38 -5 0 -10 7 -10 15 0 9 -9 15 -24 15 -13 0 -26 7 -30
15 -3 8 -17 15 -31 15 -14 0 -25 5 -25 10 0 6 -7 10 -15 10 -8 0 -15 6 -15 14
0 8 -13 17 -30 21 -16 4 -30 11 -30 16 0 5 -11 9 -24 9 -13 0 -26 7 -30 15 -4
11 -22 15 -71 15 -37 0 -65 4 -65 10 0 6 -22 10 -50 10 -44 0 -50 -2 -50 -21
0 -23 34 -59 57 -59 7 0 13 -4 13 -10 0 -5 7 -10 15 -10 8 0 15 -7 15 -15 0
-8 7 -15 15 -15 8 0 15 -7 15 -15 0 -8 7 -15 15 -15 8 0 15 -7 15 -15 0 -9 9
-15 25 -15 16 0 25 -6 25 -15 0 -8 7 -15 15 -15 8 0 15 -7 15 -15 0 -8 7 -15
15 -15 8 0 15 -4 15 -9 0 -5 11 -12 24 -15 14 -3 26 -16 30 -31 4 -14 11 -25
16 -25 6 0 10 -11 10 -25 0 -24 -3 -25 -55 -25 -30 0 -55 5 -55 10 0 6 -35 10
-85 10 -50 0 -85 -4 -85 -10 0 -5 -7 -10 -15 -10 -8 0 -28 -14 -45 -30 -17
-17 -40 -30 -50 -30 -11 0 -20 -7 -20 -15 0 -10 -10 -15 -30 -15 -16 0 -30 -4
-30 -10 0 -5 -6 -10 -14 -10 -8 0 -21 -6 -28 -13 -7 -8 -31 -17 -53 -21 -22
-4 -44 -13 -48 -19 -6 -9 -10 -9 -14 1 -6 14 -33 16 -33 2 0 -5 -11 -10 -25
-10 -14 0 -25 4 -25 9 0 5 -13 12 -30 16 -16 4 -30 11 -30 16 0 14 -57 11 -64
-3 -5 -10 -7 -10 -12 0 -7 14 -54 16 -54 2 0 -14 -197 -13 -202 1 -2 7 -42 13
-96 17 -51 2 -92 9 -92 13 0 5 -7 9 -15 9 -8 0 -15 -4 -15 -10 0 -5 -11 -10
-25 -10 -14 0 -25 5 -25 10 0 6 -7 10 -15 10 -8 0 -15 -4 -15 -10 0 -5 -11
-10 -25 -10 -14 0 -25 5 -25 10 0 6 -13 10 -29 10 -16 0 -36 7 -45 15 -8 8
-17 15 -21 15 -4 0 -13 -7 -21 -15 -9 -8 -29 -15 -45 -15 -16 0 -29 -4 -29 -9
0 -4 -30 -11 -67 -14 -38 -4 -69 -11 -71 -17 -2 -5 -21 -10 -42 -10 -40 0 -70
-20 -70 -46 0 -8 7 -14 15 -14 8 0 15 -7 15 -15 0 -10 10 -15 30 -15 17 0 30
-4 30 -10 0 -5 11 -12 25 -16 14 -3 25 -10 25 -15 0 -5 43 -9 95 -9 52 0 95 4
95 9 0 4 35 11 77 14 43 3 79 11 81 16 5 16 229 15 234 -1 4 -10 61 -14 229
-16 149 -3 226 -7 231 -15 4 -7 95 -12 284 -14 153 -1 280 -6 283 -11 3 -5 29
-13 56 -17 28 -4 53 -11 56 -17 8 -12 240 -13 248 0 3 5 16 12 29 16 12 4 22
11 22 16 0 4 11 11 25 14 14 4 25 11 25 16 0 6 20 10 45 10 25 0 45 -4 45 -10
0 -5 -7 -10 -15 -10 -8 0 -15 -6 -15 -14 0 -8 -16 -16 -40 -20 -22 -3 -40 -11
-40 -16 0 -6 -7 -10 -15 -10 -8 0 -15 -4 -15 -9 0 -5 -10 -13 -22 -16 -11 -4
-31 -18 -43 -31 -12 -13 -27 -24 -34 -24 -6 0 -11 -6 -11 -14 0 -8 -11 -17
-25 -20 -14 -4 -25 -11 -25 -16 0 -6 -13 -10 -30 -10 -20 0 -30 -5 -30 -15 0
-8 -7 -15 -15 -15 -8 0 -15 -5 -15 -11 0 -14 -25 -39 -39 -39 -6 0 -11 -7 -11
-15 0 -8 -7 -15 -15 -15 -8 0 -15 -7 -15 -15 0 -8 -7 -15 -15 -15 -8 0 -15 -7
-15 -15 0 -9 -9 -15 -21 -15 -12 0 -32 -11 -45 -25 -13 -14 -32 -25 -44 -25
-11 0 -20 -7 -20 -15 0 -10 -10 -15 -30 -15 -20 0 -30 -5 -30 -15 0 -11 -11
-15 -36 -15 -19 0 -42 -7 -50 -15 -9 -9 -34 -15 -60 -15 -24 0 -44 -4 -44 -10
0 -5 -7 -10 -15 -10 -8 0 -15 5 -15 10 0 6 -4 10 -10 10 -5 0 -10 -6 -10 -14
0 -18 -212 -16 -218 2 -2 7 -24 12 -53 12 -35 0 -51 4 -55 15 -8 19 -58 19
-78 0 -21 -22 -293 -22 -322 0 -10 8 -29 15 -42 15 -13 0 -30 7 -38 15 -9 8
-27 15 -40 15 -14 0 -32 7 -40 15 -9 8 -29 15 -45 15 -16 0 -29 5 -29 10 0 6
-7 10 -15 10 -8 0 -15 7 -15 15 0 9 -9 15 -25 15 -14 0 -25 4 -25 10 0 5 -11
12 -24 16 -14 3 -27 12 -30 20 -3 8 -12 14 -21 14 -8 0 -15 4 -15 9 0 13 -34
23 -54 15 -17 -7 -23 -54 -6 -54 6 0 10 -13 10 -30 0 -20 5 -30 15 -30 8 0 15
-7 15 -15 0 -8 4 -14 8 -13 11 4 72 -57 72 -71 0 -6 11 -11 25 -11 16 0 25 -6
25 -15 0 -10 10 -15 30 -15 17 0 30 -5 30 -11 0 -17 23 -35 53 -43 15 -3 27
-11 27 -16 0 -6 5 -10 11 -10 6 0 17 -7 25 -15 9 -8 29 -15 45 -15 16 0 29 -4
29 -9 0 -5 14 -12 30 -16 17 -4 30 -11 30 -15 0 -5 17 -12 38 -16 20 -4 40
-12 44 -17 3 -6 35 -13 70 -15 35 -3 65 -8 68 -12 3 -4 106 -10 228 -13 145
-3 228 -9 235 -16 7 -7 52 -11 114 -11 85 0 103 -3 103 -15 0 -10 10 -15 30
-15 17 0 30 -4 30 -10 0 -5 11 -12 25 -16 14 -3 25 -12 25 -20 0 -8 7 -14 15
-14 8 0 15 -4 15 -10 0 -5 7 -10 15 -10 8 0 15 -7 15 -15 0 -8 5 -15 10 -15 6
0 10 -13 10 -30 0 -21 5 -30 16 -30 11 0 14 -5 9 -17 -4 -10 -12 -39 -18 -66
-7 -26 -15 -47 -19 -47 -3 0 -9 -14 -13 -30 -4 -17 -10 -30 -15 -30 -5 0 -11
-13 -15 -30 -4 -16 -11 -30 -16 -30 -5 0 -9 -11 -9 -25 0 -16 -6 -25 -15 -25
-8 0 -15 -6 -15 -14 0 -8 -11 -17 -25 -20 -14 -4 -25 -11 -25 -16 0 -6 -7 -10
-15 -10 -8 0 -15 -5 -15 -11 0 -14 -55 -69 -69 -69 -6 0 -11 -7 -11 -15 0 -10
-10 -15 -29 -15 -16 0 -36 -7 -45 -15 -8 -8 -26 -15 -40 -15 -16 0 -26 -6 -26
-15 0 -9 -9 -15 -24 -15 -13 0 -26 -5 -28 -11 -2 -6 -27 -14 -56 -17 -29 -2
-52 -8 -52 -13 0 -5 -137 -9 -305 -9 -171 0 -305 4 -305 9 0 5 -16 12 -35 15
-19 4 -35 11 -35 16 0 6 -9 10 -19 10 -11 0 -26 7 -35 15 -8 8 -24 15 -35 15
-12 0 -21 6 -21 15 0 8 -6 15 -14 15 -8 0 -16 5 -18 10 -2 6 -21 13 -43 17
-40 6 -65 23 -65 42 0 6 -7 11 -15 11 -8 0 -15 7 -15 15 0 10 -10 15 -30 15
-20 0 -30 5 -30 15 0 9 -9 15 -25 15 -14 0 -25 4 -25 10 0 5 -11 12 -25 16
-14 3 -25 10 -25 15 0 5 -7 9 -15 9 -8 0 -15 7 -15 15 0 8 -7 15 -15 15 -8 0
-15 7 -15 15 0 8 -9 15 -20 15 -21 0 -60 33 -60 50 0 6 -7 10 -15 10 -8 0 -15
7 -15 15 0 8 -4 15 -10 15 -5 0 -10 7 -10 15 0 19 -106 125 -124 125 -9 0 -15
18 -18 52 -3 29 -11 54 -17 56 -6 2 -11 27 -11 58 0 41 -4 54 -15 54 -11 0
-15 11 -15 40 0 22 -4 40 -10 40 -5 0 -10 14 -10 30 0 20 -5 30 -15 30 -9 0
-15 10 -15 26 0 38 -25 57 -81 60 -46 2 -79 20 -79 43 0 6 -7 11 -15 11 -9 0
-22 6 -31 13 -59 50 -94 90 -94 107 0 27 -16 25 -24 -2 -11 -41 -6 -96 9 -112
8 -8 15 -26 15 -40 0 -14 4 -26 10 -26 5 0 12 -11 16 -25 3 -14 10 -25 15 -25
5 0 9 -13 9 -30 0 -20 5 -30 15 -30 11 0 15 -11 15 -40 0 -22 4 -40 9 -40 5 0
12 -12 16 -27 3 -15 11 -31 17 -34 7 -4 13 -72 16 -173 3 -91 9 -166 13 -166
5 0 9 -43 9 -95 0 -52 -4 -95 -8 -95 -5 0 -12 -100 -15 -222 -3 -147 -9 -224
-16 -226 -6 -2 -11 -24 -11 -48 l0 -44 70 0 70 0 0 30 c0 17 5 30 10 30 6 0
10 11 10 25 0 14 7 42 15 62 8 19 15 60 15 89 0 30 4 54 10 54 5 0 13 12 16
28 4 15 11 30 16 33 6 3 11 60 12 125 3 119 3 119 26 116 13 -1 27 -6 30 -11
3 -5 15 -11 28 -15 12 -4 22 -11 22 -16 0 -4 11 -11 25 -14 15 -4 27 -16 31
-31 4 -15 13 -25 24 -25 18 0 90 -60 90 -74 0 -11 27 -36 38 -36 5 0 13 -11
16 -25 4 -14 11 -25 16 -25 6 0 10 -6 10 -14 0 -8 7 -16 15 -20 8 -3 15 -10
15 -16 0 -15 25 -40 39 -40 6 0 11 -18 11 -40 0 -29 4 -40 15 -40 8 0 15 -7
15 -15 0 -9 9 -15 24 -15 19 0 26 -7 31 -30 4 -17 11 -30 16 -30 5 0 9 -13 9
-30 l0 -30 1536 0 1536 0 -7 28 c-3 15 -11 29 -16 30 -5 2 -9 16 -9 32 0 16
-7 35 -15 44 -8 8 -15 32 -15 54 0 23 -5 42 -12 44 -9 3 -14 35 -16 101 -3 84
-2 97 12 97 15 0 16 36 15 372 -1 331 1 372 15 380 9 5 16 20 16 33 0 14 5 25
10 25 6 0 10 7 10 15 0 8 7 15 15 15 11 0 15 11 15 40 0 29 4 40 15 40 8 0 15
7 15 15 0 8 7 15 15 15 8 0 15 5 15 11 0 14 25 39 39 39 6 0 11 7 11 15 0 9 9
15 25 15 14 0 25 -4 25 -10 0 -5 -4 -10 -9 -10 -5 0 -13 -15 -17 -32 -3 -18
-16 -41 -28 -52 -14 -13 -17 -20 -8 -23 15 -6 16 -100 2 -139 -7 -18 -7 -30 1
-40 8 -10 7 -46 -5 -137 -11 -82 -16 -202 -16 -360 0 -151 -4 -237 -10 -237
-6 0 -10 -53 -10 -140 0 -87 4 -140 10 -140 6 0 10 -30 10 -70 l0 -70 930 0
930 0 0 45 c0 41 2 45 24 45 22 0 25 6 31 53 4 28 12 55 17 58 5 3 12 66 15
140 2 74 9 135 14 137 5 2 9 10 9 18 0 8 7 14 15 14 11 0 15 -11 15 -40 0 -22
5 -40 10 -40 6 0 10 -45 10 -115 0 -70 -4 -115 -10 -115 -6 0 -10 -40 -10
-100 l0 -100 370 0 370 0 0 435 c0 283 3 435 10 435 7 0 10 -152 10 -435 l0
-435 251 0 252 0 -6 97 c-3 55 -10 99 -16 101 -8 3 -11 94 -11 282 0 199 -3
279 -11 282 -8 3 -13 49 -17 128 -2 69 -8 127 -12 130 -7 5 -15 234 -11 338 1
51 21 57 21 6 0 -19 7 -42 15 -50 9 -9 15 -34 15 -60 0 -24 4 -44 9 -44 5 0
12 -38 16 -85 4 -47 11 -85 15 -85 4 0 10 -118 14 -262 4 -155 11 -264 16
-266 13 -5 13 -112 0 -112 -6 0 -10 -30 -10 -70 0 -40 4 -70 10 -70 6 0 10
-50 10 -130 l0 -130 55 0 55 0 0 4585 0 4586 -477 -6 c-309 -3 -479 -8 -481
-15 -4 -12 -79 -13 -84 -1 -1 5 -94 13 -205 16 -161 6 -203 11 -203 21 0 8 -4
14 -10 14 -5 0 -10 7 -10 15 0 8 5 15 10 15 6 0 10 9 10 20 0 22 29 60 46 60
6 0 11 21 12 52 0 29 6 54 11 56 6 2 11 10 11 18 0 8 7 14 15 14 9 0 15 9 15
25 0 14 -4 25 -9 25 -5 0 -12 14 -16 30 -5 23 -12 30 -31 30 -20 0 -24 5 -24
30 0 17 -4 30 -10 30 -5 0 -12 11 -16 25 -3 14 -12 25 -20 25 -8 0 -14 7 -14
15 0 8 -4 15 -9 15 -5 0 -12 11 -15 25 -4 14 -11 25 -16 25 -6 0 -10 7 -10 15
0 8 -7 15 -15 15 -8 0 -15 6 -15 14 0 8 -11 17 -25 20 -14 4 -25 11 -25 16 0
6 -7 10 -15 10 -8 0 -15 7 -15 15 0 9 -9 15 -24 15 -17 0 -26 7 -30 25 -6 24
-26 36 -26 15 0 -5 -7 -10 -15 -10 -9 0 -15 10 -15 26 0 14 -7 33 -16 42 -12
12 -15 28 -11 66 2 28 10 52 16 54 17 6 13 32 -5 32 -11 0 -14 8 -12 28 2 21
9 28 31 30 21 3 27 9 27 28 0 22 -4 24 -44 24 -26 0 -47 -5 -50 -12 -5 -10 -7
-10 -12 0 -3 6 -19 12 -35 12 -19 0 -29 5 -29 15 0 8 -4 15 -9 15 -5 0 -12 11
-15 25 -4 16 -13 25 -25 25 -22 0 -31 -19 -31 -66 0 -19 -4 -34 -9 -34 -13 0
-23 76 -15 117 5 27 2 38 -14 54 -12 10 -26 19 -32 19 -5 0 -10 11 -10 25 0
23 -4 25 -40 25 -22 0 -40 -4 -40 -10 0 -5 -5 -10 -11 -10 -16 0 -37 25 -45
54 -7 29 -48 37 -58 11 -3 -8 -15 -15 -26 -15 -15 0 -20 -7 -20 -25 0 -14 5
-25 10 -25 6 0 10 -7 10 -15 0 -8 -4 -15 -10 -15 -5 0 -10 7 -10 15 0 8 -4 15
-10 15 -17 0 -50 39 -50 60 0 16 -7 20 -30 20 -16 0 -30 -4 -30 -9 0 -5 -18
-11 -39 -15 -22 -3 -41 -11 -43 -18 -3 -8 -30 -11 -86 -10 -60 1 -85 -2 -96
-13 -19 -19 -36 -19 -36 0 0 8 -4 15 -10 15 -5 0 -10 -7 -10 -15 0 -8 -7 -15
-15 -15 -11 0 -15 11 -15 40 0 36 3 40 25 40 16 0 25 6 25 15 0 9 10 15 26 15
14 0 32 7 40 15 9 8 31 15 50 15 24 0 42 8 58 25 13 14 28 25 35 25 6 0 11 7
11 15 0 11 -11 15 -40 15 -22 0 -40 -4 -40 -10 0 -5 -7 -10 -15 -10 -8 0 -15
5 -15 10 0 6 -11 10 -25 10 -14 0 -25 -4 -25 -9 0 -12 -36 -20 -60 -14 -11 3
-20 11 -20 18 0 6 -10 24 -23 38 -20 24 -30 27 -85 27 -48 0 -62 -3 -62 -15 0
-10 -10 -15 -30 -15 -16 0 -30 -4 -30 -10 0 -5 -11 -12 -25 -16 -14 -3 -25
-10 -25 -15 0 -5 -18 -12 -40 -15 -22 -4 -40 -10 -40 -15 0 -4 -17 -11 -37
-15 -20 -4 -46 -18 -58 -30 -12 -13 -27 -24 -34 -24 -6 0 -11 -7 -11 -15 0
-12 -14 -15 -65 -15 -51 0 -65 3 -65 15 0 8 -7 15 -15 15 -8 0 -15 4 -15 10 0
5 -12 13 -27 16 -15 4 -34 13 -41 21 -7 7 -31 13 -53 13 -21 0 -39 5 -39 10 0
12 -57 14 -62 2 -1 -5 -50 -12 -106 -16 -98 -6 -104 -5 -109 14 -3 11 -9 20
-13 20 -4 0 -11 11 -14 25 -5 20 -12 25 -40 25 -21 0 -36 6 -40 15 -3 8 -17
15 -31 15 -16 0 -25 6 -25 15 0 8 -7 15 -15 15 -8 0 -15 5 -15 10 0 6 7 10 15
10 8 0 15 9 15 20 0 20 -7 20 -914 20 -503 0 -921 -3 -930 -6 -9 -3 -16 -16
-16 -29 0 -28 -39 -42 -56 -20 -13 17 -54 21 -54 5 0 -5 -7 -10 -15 -10 -8 0
-15 5 -15 11 0 14 -25 39 -39 39 -6 0 -11 -13 -11 -30 0 -16 4 -30 10 -30 5 0
12 -11 16 -25 3 -14 10 -25 15 -25 5 0 9 -7 9 -15 0 -8 7 -15 15 -15 20 0 19
-6 -5 -30 l-20 -20 -24 25 c-17 18 -34 25 -60 25 -25 0 -36 4 -36 15 0 11 -11
15 -39 15 -25 0 -41 5 -45 15 -3 8 -17 15 -31 15 -16 0 -25 6 -25 15 0 8 -7
15 -15 15 -8 0 -15 5 -15 10 0 18 -22 11 -46 -15 -25 -27 -34 -31 -34 -14 0
14 -55 69 -69 69 -6 0 -11 -4 -11 -10 0 -5 -18 -13 -40 -16 -22 -4 -40 -10
-40 -15 0 -5 -14 -9 -31 -9 -29 0 -31 2 -27 30 l5 30 -125 0 c-115 0 -124 -1
-129 -20 -3 -11 -12 -20 -19 -20 -10 0 -13 -7 -8 -25 5 -19 2 -25 -10 -25 -9
0 -16 -7 -16 -15 0 -10 -10 -15 -30 -15 -20 0 -30 5 -30 15 0 8 -4 15 -10 15
-5 0 -10 11 -10 25 0 16 -6 25 -15 25 -8 0 -15 -7 -15 -15 0 -8 -7 -15 -15
-15 -8 0 -15 7 -15 15 0 8 -7 15 -16 15 -11 0 -15 6 -11 20 5 20 -1 22 -35 13z
m3047 -43 c0 -7 -6 -15 -12 -17 -8 -3 -13 4 -13 17 0 13 5 20 13 18 6 -3 12
-11 12 -18z m-2245 -35 c0 -8 5 -15 10 -15 6 0 10 -4 10 -10 0 -5 -9 -10 -20
-10 -11 0 -20 4 -20 9 0 5 -3 16 -6 25 -4 11 -1 16 10 16 9 0 16 -7 16 -15z
m-1049 -155 c5 0 9 -9 9 -20 0 -11 -4 -20 -10 -20 -5 0 -10 5 -10 10 0 6 -7
10 -15 10 -8 0 -15 7 -15 16 0 11 5 14 16 10 9 -3 20 -6 25 -6z m5534 -510 c0
-7 -6 -15 -12 -17 -8 -3 -13 4 -13 17 0 13 5 20 13 18 6 -3 12 -11 12 -18z
m-3963 -2129 c2 -5 36 -11 77 -15 41 -3 77 -10 80 -15 3 -5 46 -10 95 -12 60
-3 91 -8 94 -17 2 -6 10 -12 18 -12 8 0 14 -7 14 -15 0 -9 9 -15 25 -15 15 0
25 -6 25 -14 0 -8 14 -28 30 -44 17 -17 30 -35 30 -41 0 -6 7 -11 15 -11 8 0
15 -7 15 -15 0 -8 5 -15 11 -15 18 0 36 -24 44 -58 3 -18 11 -32 16 -32 5 0 9
-11 9 -25 0 -16 6 -25 15 -25 8 0 15 -7 15 -15 0 -8 4 -15 10 -15 5 0 12 -11
16 -25 3 -14 10 -25 15 -25 5 0 9 -7 9 -15 0 -8 7 -15 15 -15 8 0 15 -7 15
-15 0 -8 4 -15 9 -15 5 0 13 -9 16 -21 4 -11 24 -37 44 -57 37 -37 71 -108 71
-150 0 -17 6 -22 24 -22 24 0 24 -2 28 -97 2 -66 7 -98 16 -101 8 -2 12 -25
12 -68 0 -50 3 -64 15 -64 11 0 15 -12 15 -45 0 -25 5 -45 10 -45 6 0 10 -7
10 -15 0 -8 7 -15 15 -15 12 0 15 -19 15 -110 0 -91 3 -110 15 -110 8 0 15 -7
15 -15 0 -8 7 -15 15 -15 8 0 15 -7 15 -15 0 -9 9 -15 25 -15 14 0 25 -6 26
-12 0 -10 2 -10 6 0 7 17 23 15 23 -3 0 -8 5 -15 11 -15 14 0 39 -25 39 -40 0
-6 7 -13 15 -16 8 -4 15 -17 15 -30 0 -15 6 -24 15 -24 8 0 15 -9 15 -20 0
-25 34 -60 59 -60 11 0 26 -7 35 -15 8 -8 22 -15 30 -15 9 0 16 -4 16 -10 0
-5 11 -12 25 -16 14 -3 25 -12 25 -20 0 -8 9 -14 20 -14 26 0 60 -34 60 -60 0
-16 7 -20 30 -20 20 0 30 -5 30 -15 0 -8 5 -15 10 -15 6 0 10 -7 10 -15 0 -8
7 -15 15 -15 8 0 15 -4 15 -9 0 -5 -7 -11 -15 -15 -8 -3 -15 -17 -15 -31 0
-24 -2 -25 -64 -25 -37 0 -66 -5 -68 -11 -2 -5 -22 -13 -46 -16 -23 -3 -42 -9
-42 -13 0 -4 -35 -10 -77 -13 -43 -3 -79 -11 -81 -16 -2 -6 -17 -11 -32 -11
-19 0 -40 -11 -60 -30 -17 -16 -33 -30 -36 -30 -3 0 -12 -7 -20 -15 -9 -8 -26
-15 -39 -15 -12 0 -25 -7 -29 -15 -3 -8 -12 -15 -21 -15 -8 0 -15 -4 -15 -10
0 -5 -11 -10 -24 -10 -14 0 -31 -6 -38 -13 -7 -8 -26 -17 -41 -21 -15 -3 -27
-11 -27 -16 0 -6 -12 -10 -26 -10 -14 0 -32 -7 -40 -15 -9 -8 -29 -15 -45 -15
-16 0 -29 -4 -29 -10 0 -5 -18 -13 -40 -16 -22 -4 -40 -10 -40 -14 0 -4 -12
-11 -27 -15 -15 -3 -37 -17 -49 -30 -12 -14 -36 -25 -55 -27 -26 -2 -35 -8
-37 -25 -2 -17 -10 -23 -27 -23 -13 0 -37 -13 -53 -30 -18 -17 -41 -30 -56
-30 -13 0 -31 -7 -40 -15 -8 -8 -32 -15 -54 -15 -22 0 -42 -5 -44 -12 -7 -19
-122 -23 -159 -4 -18 9 -43 16 -56 16 -14 0 -31 7 -39 15 -9 8 -26 15 -40 15
-13 0 -24 5 -24 10 0 6 -8 14 -17 17 -10 4 -24 13 -31 20 -7 7 -24 13 -38 13
-13 0 -24 5 -24 10 0 6 -13 10 -30 10 -20 0 -30 5 -30 15 0 11 -11 15 -40 15
-29 0 -40 4 -40 15 0 11 -11 15 -41 15 -23 0 -47 7 -55 15 -9 8 -33 15 -55 15
-21 0 -39 4 -39 9 0 5 -13 12 -30 16 -16 4 -30 11 -30 16 0 5 -28 9 -62 9 -36
0 -75 6 -92 15 -20 11 -60 15 -138 15 -84 0 -113 3 -124 15 -13 13 -67 15
-360 15 l-344 0 0 30 c0 28 -2 30 -40 30 -22 0 -40 5 -40 10 0 14 -77 13 -82
-1 -5 -14 -74 -20 -155 -12 -58 5 -63 8 -63 29 0 19 -5 24 -25 24 -16 0 -25 6
-25 15 0 8 5 15 10 15 6 0 10 7 10 15 0 9 -9 15 -24 15 -18 0 -26 7 -31 27 -3
15 -11 31 -17 34 -6 4 -3 15 8 28 21 24 64 29 64 6 0 -8 7 -15 15 -15 8 0 15
-7 15 -15 0 -9 9 -15 25 -15 21 0 25 5 25 29 0 16 7 36 15 45 20 19 22 261 3
270 -10 5 -10 7 0 12 14 7 16 34 2 34 -5 0 -10 7 -10 15 0 8 5 15 10 15 6 0
10 18 10 39 0 25 5 41 15 45 11 4 15 20 15 55 0 34 4 51 15 55 10 4 15 20 15
51 0 25 5 45 10 45 6 0 10 11 10 24 0 14 7 31 15 40 11 11 15 37 15 100 0 47
4 86 9 86 4 0 11 35 15 78 3 42 11 79 16 80 6 2 10 10 10 18 0 9 11 14 30 14
25 0 30 4 30 25 0 16 6 25 15 25 8 0 15 7 15 15 0 8 5 15 10 15 6 0 10 -4 10
-10 0 -5 7 -10 15 -10 9 0 15 9 15 25 0 16 6 25 15 25 8 0 15 7 15 15 0 12 17
15 95 15 78 0 95 3 95 15 0 8 7 15 15 15 8 0 15 7 15 15 0 8 4 15 10 15 5 0
12 11 16 25 3 14 10 25 15 25 5 0 9 7 9 15 0 8 7 15 15 15 8 0 15 7 15 15 0 8
7 15 15 15 8 0 15 4 15 10 0 5 16 12 35 16 19 3 35 10 35 15 0 5 8 9 19 9 30
0 71 45 71 80 0 20 5 30 15 30 8 0 15 7 15 15 0 8 5 15 10 15 6 0 10 7 10 15
0 10 10 15 30 15 20 0 30 5 30 15 0 8 6 15 14 15 8 0 16 5 18 11 2 6 25 13 51
16 26 3 47 9 47 13 0 4 31 10 69 12 46 4 75 11 86 22 9 9 23 16 31 16 8 0 14
4 14 9 0 5 11 12 25 15 14 4 25 11 25 16 0 6 12 10 26 10 14 0 32 7 40 15 9 8
24 15 35 15 10 0 19 4 19 10 0 5 11 12 25 16 14 3 25 10 25 15 0 5 18 9 40 9
29 0 40 4 40 15 0 11 11 15 40 15 29 0 40 4 40 15 0 11 11 15 39 15 25 0 41 5
45 15 3 9 19 15 41 15 20 0 43 7 51 15 9 8 33 15 55 15 21 0 39 5 39 10 0 12
137 14 142 1z m-1090 -2352 c3 -8 42 -14 106 -17 56 -2 102 -8 102 -12 0 -4
38 -11 85 -15 47 -4 85 -10 85 -15 0 -4 23 -10 52 -12 29 -3 54 -11 56 -17 2
-6 27 -11 58 -11 41 0 54 -4 54 -15 0 -11 11 -15 40 -15 22 0 40 -4 40 -10 0
-5 18 -13 40 -16 22 -4 40 -10 40 -14 0 -5 14 -11 30 -15 17 -4 30 -10 30 -15
0 -4 11 -11 25 -14 14 -4 25 -11 25 -16 0 -6 11 -10 25 -10 14 0 28 -7 31 -15
4 -8 15 -15 26 -15 11 0 26 -7 34 -15 9 -8 28 -15 44 -15 16 0 30 -6 32 -12 4
-10 43 -13 148 -13 105 0 144 3 148 13 2 6 15 12 28 12 14 0 27 7 30 15 4 9
19 15 35 15 16 0 29 4 29 10 0 5 11 12 25 16 14 3 25 10 25 15 0 5 18 12 40
15 22 4 40 10 40 14 0 5 14 11 30 15 17 4 30 11 30 16 0 5 11 9 24 9 14 0 31
7 40 15 8 8 32 15 53 15 22 0 48 7 59 15 11 8 41 15 71 15 28 0 53 5 55 11 2
6 41 13 88 16 47 3 87 10 90 14 3 5 56 11 118 15 62 4 112 11 112 16 0 4 164
8 365 8 201 0 365 -4 365 -9 0 -5 50 -12 110 -16 61 -3 110 -10 110 -15 0 -4
35 -10 77 -12 45 -3 79 -10 81 -17 2 -7 30 -11 72 -11 51 0 69 -4 74 -15 4
-11 20 -15 55 -15 27 0 51 -5 53 -11 2 -5 22 -13 46 -16 23 -3 42 -9 42 -13 0
-5 23 -11 50 -15 28 -4 50 -11 50 -16 0 -5 13 -9 29 -9 16 0 36 -7 45 -15 8
-8 31 -15 51 -15 22 0 38 -6 41 -15 4 -8 17 -15 30 -15 13 0 24 -4 24 -10 0
-5 7 -10 15 -10 8 0 15 -7 15 -15 0 -9 7 -18 15 -21 9 -4 15 -19 15 -35 0 -16
5 -29 10 -29 6 0 10 -22 10 -50 0 -27 -4 -50 -10 -50 -5 0 -10 -13 -10 -29 0
-16 -7 -36 -15 -45 -8 -8 -15 -19 -15 -24 0 -5 -11 -13 -25 -16 -14 -4 -25
-11 -25 -16 0 -6 -18 -10 -40 -10 -27 0 -43 -5 -46 -15 -4 -9 -19 -15 -35 -15
-17 0 -32 -6 -35 -15 -4 -8 -10 -15 -15 -15 -14 0 -46 -36 -54 -59 -3 -12 -11
-21 -16 -21 -5 0 -9 -13 -9 -29 0 -16 -6 -31 -12 -33 -9 -3 -14 -35 -16 -96
-2 -51 -8 -92 -12 -92 -4 0 -11 -38 -15 -85 -4 -47 -10 -85 -15 -85 -4 0 -10
-19 -13 -42 -3 -24 -11 -44 -16 -46 -6 -2 -11 -21 -11 -43 0 -28 -4 -39 -15
-39 -8 0 -15 -7 -15 -15 0 -8 -4 -15 -10 -15 -5 0 -10 -6 -10 -14 0 -8 -6 -21
-13 -28 -8 -7 -17 -26 -21 -41 -3 -15 -11 -27 -16 -27 -6 0 -10 -7 -10 -15 0
-8 -7 -15 -15 -15 -8 0 -15 -5 -15 -11 0 -16 -165 -176 -191 -184 -13 -4 -29
-14 -37 -21 -7 -8 -20 -14 -28 -14 -8 0 -14 -4 -14 -10 0 -5 -11 -10 -25 -10
-16 0 -25 -6 -25 -15 0 -11 -11 -15 -41 -15 -23 0 -47 -7 -55 -15 -11 -10 -36
-15 -84 -15 -38 0 -70 -4 -72 -10 -5 -15 -810 -18 -815 -2 -3 7 -22 12 -48 12
-25 0 -50 6 -59 15 -8 8 -31 15 -50 15 -25 0 -36 4 -36 15 0 10 -10 15 -30 15
-16 0 -30 4 -30 9 0 5 -10 13 -22 17 -13 4 -32 17 -44 29 -11 13 -31 26 -42
30 -12 3 -22 11 -22 16 0 5 -7 9 -15 9 -8 0 -15 7 -15 15 0 8 -7 15 -15 15 -8
0 -15 7 -15 15 0 8 -5 15 -11 15 -14 0 -39 25 -39 39 0 6 -7 11 -15 11 -8 0
-15 7 -15 15 0 8 -7 15 -15 15 -8 0 -15 5 -15 11 0 7 -11 22 -25 35 -14 13
-25 28 -25 34 0 5 -4 10 -10 10 -5 0 -12 11 -16 25 -3 14 -12 25 -20 25 -8 0
-14 7 -14 15 0 8 -4 15 -9 15 -5 0 -12 11 -15 25 -4 14 -11 25 -16 25 -6 0
-10 14 -10 30 0 20 -5 30 -15 30 -11 0 -15 11 -15 40 0 22 -4 40 -9 40 -5 0
-12 14 -16 30 -4 17 -10 30 -15 30 -4 0 -10 23 -12 52 -3 29 -11 54 -17 56 -6
2 -11 17 -11 33 0 19 -5 29 -15 29 -8 0 -15 5 -15 11 0 19 -88 99 -109 99 -12
0 -21 6 -21 15 0 12 -16 15 -85 15 -69 0 -85 -3 -85 -15 0 -9 -10 -15 -26 -15
-15 0 -38 -12 -56 -30 -16 -16 -34 -30 -39 -30 -5 0 -11 -11 -15 -25 -3 -14
-10 -25 -14 -25 -5 0 -11 -13 -15 -30 -4 -16 -11 -30 -16 -30 -5 0 -9 -16 -9
-36 0 -19 -7 -42 -15 -50 -8 -9 -15 -31 -15 -50 0 -19 -4 -34 -9 -34 -5 0 -12
-11 -15 -25 -4 -14 -11 -25 -16 -25 -6 0 -10 -13 -10 -30 0 -20 -5 -30 -15
-30 -9 0 -15 -9 -15 -24 0 -13 -7 -26 -15 -30 -8 -3 -15 -17 -15 -31 0 -16 -6
-25 -15 -25 -8 0 -15 -5 -15 -11 0 -7 -11 -22 -25 -35 -14 -13 -25 -26 -25
-29 0 -4 -13 -20 -30 -37 -16 -16 -30 -34 -30 -39 0 -5 -11 -11 -25 -15 -14
-3 -25 -11 -25 -16 0 -13 -56 -68 -69 -68 -6 0 -11 -7 -11 -15 0 -8 -9 -15
-20 -15 -12 0 -31 -11 -43 -24 -13 -14 -35 -28 -50 -31 -15 -4 -27 -11 -27
-15 0 -4 -18 -10 -40 -14 -22 -3 -40 -11 -40 -16 0 -6 -13 -10 -29 -10 -16 0
-36 -7 -45 -15 -9 -9 -33 -15 -64 -15 -31 0 -52 -5 -55 -12 -3 -10 -90 -13
-392 -13 -302 0 -389 3 -393 13 -2 8 -26 12 -69 12 -44 0 -69 5 -79 15 -9 8
-29 15 -45 15 -16 0 -29 4 -29 9 0 5 -13 12 -30 16 -16 4 -30 11 -30 16 0 5
-11 11 -25 15 -14 3 -25 10 -25 14 0 4 -11 11 -25 14 -14 4 -25 11 -25 16 0 6
-5 10 -10 10 -6 0 -21 11 -34 25 -13 14 -28 25 -35 25 -6 0 -11 7 -11 15 0 8
-7 15 -15 15 -8 0 -15 5 -15 10 0 6 -11 21 -25 34 -14 13 -25 28 -25 35 0 6
-7 11 -15 11 -8 0 -15 5 -15 11 0 7 -11 22 -25 35 -14 13 -25 32 -25 44 0 11
-7 20 -15 20 -9 0 -15 9 -15 24 0 13 -7 26 -15 30 -8 3 -15 17 -15 31 0 14 -4
25 -10 25 -5 0 -10 9 -10 19 0 11 -7 26 -15 35 -8 8 -15 30 -15 48 0 18 -7 42
-15 52 -11 15 -15 48 -15 127 0 61 -4 109 -10 111 -5 2 -12 36 -16 76 -4 39
-11 72 -15 72 -5 0 -9 11 -9 25 0 16 -6 25 -15 25 -8 0 -15 9 -15 20 0 23 -29
55 -59 65 -12 3 -21 10 -21 15 0 4 -25 11 -55 15 -30 3 -55 11 -55 16 0 5 -7
9 -15 9 -8 0 -15 7 -15 15 0 8 -7 15 -15 15 -8 0 -15 7 -15 15 0 8 -4 15 -10
15 -6 0 -10 38 -10 95 0 52 4 95 9 95 5 0 12 11 15 25 4 14 11 25 16 25 6 0
10 7 10 15 0 8 11 17 25 21 14 3 25 10 25 15 0 5 18 12 40 15 22 4 40 10 40
14 0 4 19 10 42 13 24 3 44 11 46 16 2 6 26 11 53 11 35 0 51 4 55 15 5 11 21
15 59 15 32 0 55 5 57 12 3 7 32 14 71 16 37 2 67 8 67 12 0 5 36 12 80 16 44
3 80 10 80 14 0 4 48 10 107 13 64 3 109 9 111 16 5 16 819 15 824 0z m4590
-1340 c1 -33 2 -121 0 -195 -3 -109 -6 -134 -18 -134 -10 0 -14 -14 -14 -55 0
-42 -3 -55 -15 -55 -11 0 -15 -11 -15 -40 0 -22 -4 -40 -9 -40 -4 0 -11 -27
-15 -60 -4 -33 -11 -60 -16 -60 -6 0 -10 -6 -10 -14 0 -8 -6 -17 -12 -20 -10
-5 -10 -7 0 -12 17 -8 15 -82 -3 -100 -9 -9 -15 -34 -15 -60 0 -40 -2 -44 -25
-44 -14 0 -25 -4 -25 -10 0 -5 5 -10 10 -10 6 0 10 -13 10 -30 0 -16 -4 -30
-10 -30 -5 0 -10 -13 -10 -30 0 -20 -5 -30 -15 -30 -9 0 -15 -9 -15 -25 0 -14
-4 -25 -10 -25 -6 0 -10 33 -10 80 0 44 4 80 9 80 5 0 11 18 15 40 3 22 11 40
16 40 6 0 10 20 10 44 0 26 5 46 12 48 8 3 14 33 16 81 2 42 8 77 12 77 4 0
10 19 13 42 3 24 11 44 16 46 6 2 11 27 11 55 0 30 7 60 15 71 11 14 15 46 15
112 0 59 4 94 11 96 6 2 14 36 17 76 2 40 9 72 13 72 5 0 9 11 9 24 0 13 3 31
6 40 12 32 22 15 26 -45z m-7412 -149 c0 -5 -4 -10 -10 -10 -5 0 -10 5 -10 10
0 6 5 10 10 10 6 0 10 -4 10 -10z m7110 -420 c0 -29 -4 -40 -15 -40 -12 0 -15
-14 -15 -70 0 -38 -4 -70 -9 -70 -5 0 -12 -13 -16 -30 -10 -45 -25 -36 -25 15
0 33 4 45 15 45 12 0 15 14 15 65 0 36 4 65 9 65 5 0 11 14 15 30 8 44 26 37
26 -10z m-300 -150 c0 -16 -4 -30 -10 -30 -5 0 -12 -11 -16 -25 -3 -14 -12
-25 -20 -25 -8 0 -14 -7 -14 -15 0 -9 -9 -15 -25 -15 -14 0 -25 5 -25 10 0 6
7 10 15 10 8 0 15 5 15 10 0 6 11 21 25 34 14 13 25 32 25 43 0 11 3 23 7 26
14 15 23 6 23 -23z m1360 -325 c0 -8 -4 -15 -10 -15 -5 0 -10 7 -10 15 0 8 5
15 10 15 6 0 10 -7 10 -15z m3 -217 c4 -114 10 -184 16 -186 14 -5 15 -362 2
-362 -5 0 -12 -13 -16 -30 -17 -76 -25 -16 -25 179 0 147 -3 210 -11 213 -8 3
-13 59 -17 169 -4 146 -3 167 12 182 10 9 21 17 25 17 4 0 11 -82 14 -182z
m-1041 121 c-1 -13 -7 -25 -12 -27 -6 -2 -10 -15 -10 -28 0 -15 -6 -24 -15
-24 -8 0 -15 -7 -15 -15 0 -8 -7 -15 -15 -15 -8 0 -15 -7 -15 -15 0 -8 -4 -15
-10 -15 -5 0 -10 -7 -10 -15 0 -8 -6 -15 -14 -15 -8 0 -16 -6 -19 -12 -2 -8
-8 -9 -13 -4 -5 5 -4 11 4 13 6 3 12 11 12 19 0 8 4 14 10 14 5 0 12 11 16 24
3 15 15 27 30 30 17 5 24 13 24 31 0 16 6 25 15 25 10 0 15 10 15 31 0 20 4
29 13 26 6 -2 11 -15 9 -28z m-162 -209 c0 -5 -4 -10 -10 -10 -5 0 -10 5 -10
10 0 6 5 10 10 10 6 0 10 -4 10 -10z m1232 -617 c2 -39 9 -68 16 -71 8 -2 12
-31 12 -87 0 -57 4 -85 13 -89 10 -5 10 -7 0 -12 -16 -7 -18 -124 -3 -124 6 0
10 -25 10 -55 0 -34 -4 -55 -11 -55 -8 0 -9 -16 -5 -52 18 -135 18 -138 5
-138 -11 0 -11 -3 1 -11 11 -8 12 -12 3 -16 -9 -3 -13 -36 -13 -114 0 -66 -4
-109 -10 -109 -6 0 -10 60 -10 159 0 87 -3 186 -6 220 -6 52 -5 61 10 61 10 0
16 8 16 25 0 16 -6 25 -15 25 -12 0 -15 19 -15 115 0 70 -4 115 -10 115 -6 0
-10 53 -10 140 0 144 14 192 22 73z m57 -1140 c1 -14 -5 -23 -14 -23 -16 0
-19 28 -8 70 l7 25 7 -25 c4 -14 7 -35 8 -47z m1 -199 c0 -30 -4 -54 -10 -54
-6 0 -10 27 -10 61 0 37 4 58 10 54 6 -3 10 -31 10 -61z m-1370 -424 c0 -259
-10 -345 -23 -203 -9 87 -9 401 -1 442 17 82 24 8 24 -239z m-820 140 c0 -5
-4 -10 -10 -10 -5 0 -10 5 -10 10 0 6 5 10 10 10 6 0 10 -4 10 -10z m0 -75 c0
-30 -4 -55 -10 -55 -5 0 -10 25 -10 55 0 30 5 55 10 55 6 0 10 -25 10 -55z m0
-95 c0 -5 -4 -10 -10 -10 -5 0 -10 5 -10 10 0 6 5 10 10 10 6 0 10 -4 10 -10z
m820 -295 c0 -19 -4 -35 -10 -35 -5 0 -10 16 -10 35 0 19 5 35 10 35 6 0 10
-16 10 -35z"/>
<path d="M3910 7500 c0 -5 5 -10 10 -10 6 0 10 5 10 10 0 6 -4 10 -10 10 -5 0
-10 -4 -10 -10z"/>
<path d="M3200 5431 c0 -5 -45 -13 -100 -16 -55 -4 -100 -11 -100 -15 0 -4
-21 -10 -46 -13 -26 -2 -49 -9 -53 -15 -3 -6 -19 -14 -34 -17 -15 -4 -27 -11
-27 -16 0 -5 -7 -9 -15 -9 -8 0 -15 -7 -15 -15 0 -8 -7 -15 -15 -15 -19 0 -95
-77 -95 -96 0 -8 -4 -14 -10 -14 -5 0 -10 -7 -10 -15 0 -8 -7 -15 -15 -15 -9
0 -15 -9 -15 -25 0 -14 -4 -25 -9 -25 -5 0 -13 -15 -16 -32 -4 -18 -12 -36
-18 -40 -13 -8 -12 -399 1 -407 5 -3 12 -37 16 -76 4 -38 11 -71 16 -73 6 -2
10 -21 10 -42 0 -21 7 -45 15 -54 8 -8 15 -30 15 -49 0 -22 6 -37 15 -41 8 -3
15 -17 15 -31 0 -14 5 -25 10 -25 6 0 10 -7 10 -15 0 -8 7 -15 15 -15 9 0 15
-9 15 -25 0 -14 7 -28 15 -31 8 -4 15 -12 15 -20 0 -8 5 -14 11 -14 14 0 39
-25 39 -39 0 -6 7 -11 15 -11 8 0 15 -7 15 -15 0 -8 7 -15 15 -15 8 0 15 -4
15 -10 0 -5 11 -12 25 -16 14 -3 25 -10 25 -14 0 -5 14 -11 30 -15 17 -4 30
-11 30 -16 0 -5 18 -9 40 -9 29 0 40 -4 40 -15 0 -12 14 -15 65 -15 51 0 65
-3 65 -15 0 -13 49 -15 385 -15 250 0 385 4 385 10 0 6 -3 11 -7 11 -5 1 -174
3 -377 4 -240 2 -370 6 -375 13 -3 5 -32 13 -63 17 -32 4 -58 11 -58 15 0 4
-18 10 -40 14 -22 3 -40 11 -40 16 0 6 -11 10 -25 10 -16 0 -25 6 -25 15 0 9
-9 15 -25 15 -16 0 -25 6 -25 15 0 8 -7 15 -15 15 -8 0 -15 7 -15 15 0 8 -5
15 -11 15 -18 0 -68 56 -75 84 -3 14 -10 26 -15 26 -5 0 -9 7 -9 15 0 8 -7 15
-15 15 -10 0 -15 10 -15 30 0 17 -4 30 -9 30 -5 0 -12 18 -16 40 -4 22 -11 40
-16 40 -5 0 -9 18 -9 39 0 22 -7 46 -15 55 -10 10 -15 36 -15 84 0 47 -4 72
-12 74 -10 4 -14 51 -16 181 -3 153 -1 178 12 183 11 4 16 19 16 45 0 28 4 39
15 39 9 0 15 9 15 25 0 14 5 25 10 25 6 0 10 7 10 15 0 8 7 15 15 15 8 0 15 7
15 15 0 8 7 15 15 15 8 0 15 5 15 11 0 14 55 69 69 69 6 0 11 7 11 15 0 10 10
15 29 15 16 0 36 7 45 15 8 8 32 15 54 15 23 0 42 5 44 13 4 9 50 13 176 16
95 1 172 7 172 12 0 5 50 9 110 9 61 0 110 -4 110 -9 0 -5 91 -11 202 -12 150
-3 202 -7 206 -16 2 -9 29 -13 87 -13 61 0 88 -4 99 -15 9 -9 34 -15 65 -15
28 0 51 -4 51 -9 0 -5 25 -13 55 -16 30 -4 55 -11 55 -15 0 -4 18 -10 40 -14
22 -3 40 -11 40 -16 0 -6 7 -10 15 -10 8 0 15 -7 15 -15 0 -8 7 -15 15 -15 8
0 15 -7 15 -15 0 -8 5 -15 11 -15 13 0 39 -25 39 -38 0 -6 7 -12 15 -16 8 -3
15 -17 15 -31 0 -16 6 -25 15 -25 9 0 15 -9 15 -24 0 -13 6 -26 13 -29 17 -5
16 -339 -1 -345 -7 -2 -12 -21 -12 -42 0 -21 -7 -45 -15 -54 -8 -8 -15 -30
-15 -49 0 -22 -6 -37 -15 -41 -8 -3 -15 -12 -15 -20 0 -8 -4 -16 -10 -18 -14
-5 -17 -50 -2 -55 8 -3 12 6 12 26 0 21 5 31 15 31 8 0 15 9 15 20 0 11 5 20
10 20 6 0 10 16 10 35 0 22 6 38 15 41 10 4 15 20 15 45 0 28 4 39 15 39 12 0
15 14 15 69 0 47 4 71 13 74 8 2 12 30 12 92 0 62 -4 90 -12 93 -8 2 -13 21
-13 48 0 32 -4 44 -15 44 -9 0 -15 9 -15 25 0 14 -4 25 -10 25 -5 0 -10 7 -10
15 0 9 -6 18 -14 21 -8 3 -17 16 -20 30 -4 13 -11 24 -16 24 -6 0 -10 7 -10
15 0 8 -5 15 -11 15 -7 0 -22 11 -34 24 -12 13 -32 27 -43 31 -12 3 -22 11
-22 16 0 5 -11 9 -25 9 -14 0 -28 7 -31 15 -4 10 -21 15 -54 15 -28 0 -50 5
-52 12 -2 6 -32 13 -69 16 -35 3 -67 9 -70 14 -3 5 -43 12 -88 15 -44 3 -81 9
-81 13 0 4 -58 11 -130 15 -71 4 -130 11 -130 16 0 5 -128 9 -290 9 -170 0
-290 -4 -290 -9z"/>
<path d="M6443 5413 c-128 -2 -233 -7 -233 -12 0 -5 -31 -12 -70 -15 -38 -4
-70 -11 -70 -16 0 -4 -37 -10 -82 -12 -53 -2 -83 -8 -86 -16 -2 -7 -23 -12
-53 -12 -35 0 -51 -4 -55 -15 -4 -9 -19 -15 -40 -15 -23 0 -34 -5 -34 -14 0
-8 -13 -28 -30 -44 -16 -17 -30 -35 -30 -41 0 -5 -12 -11 -27 -13 -21 -2 -29
-9 -31 -28 -2 -13 -15 -35 -28 -47 -17 -15 -24 -33 -24 -58 0 -24 -4 -35 -15
-35 -11 0 -15 -11 -15 -40 0 -22 -4 -40 -10 -40 -6 0 -10 -45 -10 -115 0 -70
4 -115 10 -115 6 0 10 -24 10 -54 0 -35 5 -60 15 -70 8 -8 15 -32 15 -55 0
-23 4 -41 9 -41 5 0 12 -13 16 -30 4 -16 10 -30 15 -30 4 0 10 -18 14 -40 3
-22 11 -40 16 -40 6 0 10 -7 10 -15 0 -8 7 -15 15 -15 10 0 15 -10 15 -30 0
-20 5 -30 15 -30 8 0 15 -7 15 -15 0 -8 4 -15 10 -15 5 0 12 -11 16 -25 3 -14
10 -25 15 -25 5 0 9 -7 9 -15 0 -8 7 -15 15 -15 8 0 15 -7 15 -15 0 -8 5 -15
11 -15 14 0 39 -25 39 -39 0 -6 7 -11 15 -11 8 0 15 -7 15 -15 0 -9 9 -15 25
-15 16 0 25 -6 25 -15 0 -8 7 -15 15 -15 8 0 15 -4 15 -9 0 -5 14 -12 30 -16
17 -4 30 -10 30 -15 0 -4 11 -11 25 -14 14 -4 25 -11 25 -16 0 -6 14 -10 30
-10 20 0 30 -5 30 -15 0 -11 12 -15 51 -15 31 0 56 -6 65 -15 12 -11 40 -15
115 -15 59 0 99 -4 99 -10 0 -6 97 -10 270 -10 173 0 270 4 270 10 0 6 33 10
80 10 62 0 82 3 86 15 4 10 20 15 45 15 28 0 39 4 39 15 0 9 9 15 24 15 13 0
26 7 30 15 3 8 17 15 31 15 16 0 25 6 25 15 0 8 7 15 15 15 8 0 15 4 15 9 0 5
10 13 22 17 26 8 48 28 48 43 0 6 6 11 14 11 8 0 17 11 20 25 4 14 11 25 16
25 6 0 10 6 10 14 0 8 7 16 15 20 8 3 15 17 15 31 0 14 4 25 9 25 5 0 12 11
15 25 4 14 11 25 16 25 6 0 10 14 10 30 0 20 5 30 15 30 11 0 15 11 15 39 0
25 5 41 15 45 11 4 15 21 15 60 0 30 5 56 11 58 6 2 13 46 16 101 3 53 10 97
14 97 5 0 9 50 9 110 0 61 -4 110 -9 110 -5 0 -11 23 -13 52 -3 29 -11 54 -17
56 -6 2 -11 14 -11 27 0 12 -7 25 -15 29 -8 3 -15 17 -15 31 0 16 -6 25 -15
25 -8 0 -15 7 -15 15 0 8 -4 15 -10 15 -5 0 -10 7 -10 15 0 8 -7 15 -15 15 -8
0 -15 7 -15 15 0 8 -5 15 -11 15 -7 0 -22 11 -35 25 -13 14 -32 25 -44 25 -11
0 -20 7 -20 15 0 8 -5 15 -11 15 -6 0 -17 7 -25 15 -9 8 -28 15 -44 15 -16 0
-30 5 -32 11 -2 7 -58 13 -148 16 -80 3 -147 9 -150 13 -7 11 -282 17 -557 13z
m532 -98 c25 -9 79 -15 142 -15 59 0 103 -4 105 -10 2 -6 33 -13 71 -17 37 -3
67 -9 67 -14 0 -4 14 -11 32 -14 17 -4 41 -18 53 -31 12 -13 27 -24 34 -24 6
0 11 -7 11 -15 0 -8 7 -15 15 -15 8 0 15 -5 15 -11 0 -7 11 -22 25 -35 14 -13
25 -32 25 -44 0 -11 7 -20 15 -20 10 0 15 -10 15 -29 0 -16 7 -36 15 -45 22
-21 22 -341 0 -382 -9 -17 -15 -56 -15 -96 0 -38 -5 -68 -11 -70 -5 -2 -13
-22 -16 -46 -3 -23 -10 -42 -14 -42 -5 0 -9 -16 -9 -35 0 -24 -5 -35 -15 -35
-8 0 -15 -9 -15 -19 0 -11 -7 -26 -15 -35 -8 -8 -15 -19 -15 -25 0 -6 -4 -11
-9 -11 -5 0 -12 -12 -16 -27 -3 -15 -17 -37 -31 -50 -13 -12 -24 -25 -24 -28
0 -10 -28 -35 -38 -35 -6 0 -12 -7 -16 -15 -3 -8 -12 -15 -21 -15 -8 0 -15 -4
-15 -10 0 -5 -11 -12 -25 -16 -14 -3 -25 -10 -25 -15 0 -5 -18 -9 -39 -9 -22
0 -46 -7 -55 -15 -8 -8 -31 -15 -51 -15 -22 0 -38 -6 -41 -15 -5 -12 -29 -15
-130 -15 -76 0 -124 -4 -124 -10 0 -5 -11 -10 -25 -10 -14 0 -25 5 -25 10 0 6
-96 10 -269 10 -191 0 -270 3 -273 11 -2 6 -27 14 -56 17 -29 2 -52 8 -52 12
0 5 -13 11 -30 15 -16 4 -30 10 -30 15 0 5 -13 11 -30 15 -16 4 -30 11 -30 16
0 5 -9 9 -20 9 -11 0 -23 7 -26 15 -4 8 -17 15 -30 15 -15 0 -24 6 -24 15 0 8
-7 15 -15 15 -8 0 -15 7 -15 15 0 8 -7 15 -15 15 -8 0 -15 5 -15 11 0 14 -55
69 -69 69 -6 0 -11 9 -11 20 0 12 -11 31 -24 43 -14 13 -28 35 -31 50 -4 15
-11 27 -16 27 -5 0 -9 7 -9 15 0 8 -7 15 -15 15 -9 0 -15 10 -15 26 0 14 -7
32 -15 40 -8 9 -15 29 -15 45 0 16 -4 29 -9 29 -5 0 -12 20 -15 45 -4 25 -11
45 -15 45 -5 0 -11 35 -14 77 -3 43 -11 79 -16 81 -14 5 -15 172 -1 172 5 0
13 18 16 40 4 22 10 40 14 40 5 0 11 14 15 30 4 17 10 30 15 30 4 0 11 11 14
25 4 14 11 25 16 25 6 0 10 7 10 15 0 8 7 15 15 15 8 0 15 7 15 15 0 8 7 15
15 15 8 0 15 7 15 15 0 9 9 15 25 15 16 0 25 6 25 15 0 9 9 15 24 15 13 0 26
5 28 11 2 5 22 13 46 16 23 3 42 9 42 13 0 4 35 10 77 12 48 2 78 8 81 16 2 8
32 12 97 12 59 0 105 5 126 15 49 21 625 21 684 0z"/>
<path d="M7250 4220 c0 -5 5 -10 10 -10 6 0 10 5 10 10 0 6 -4 10 -10 10 -5 0
-10 -4 -10 -10z"/>
<path d="M4570 4345 c0 -14 5 -25 10 -25 6 0 10 11 10 25 0 14 -4 25 -10 25
-5 0 -10 -11 -10 -25z"/>
<path d="M4540 4305 c0 -8 5 -15 10 -15 6 0 10 7 10 15 0 8 -4 15 -10 15 -5 0
-10 -7 -10 -15z"/>
<path d="M4488 4230 c-29 -29 -36 -50 -18 -50 6 0 10 7 10 15 0 8 7 15 15 15
8 0 15 7 15 15 0 8 7 15 15 15 8 0 15 5 15 10 0 19 -25 9 -52 -20z"/>
<path d="M4430 4170 c0 -5 5 -10 10 -10 6 0 10 5 10 10 0 6 -4 10 -10 10 -5 0
-10 -4 -10 -10z"/>
<path d="M4410 4140 c0 -5 5 -10 10 -10 6 0 10 5 10 10 0 6 -4 10 -10 10 -5 0
-10 -4 -10 -10z"/>
<path d="M4380 4110 c0 -5 5 -10 10 -10 6 0 10 5 10 10 0 6 -4 10 -10 10 -5 0
-10 -4 -10 -10z"/>
<path d="M4350 4080 c0 -5 5 -10 10 -10 6 0 10 5 10 10 0 6 -4 10 -10 10 -5 0
-10 -4 -10 -10z"/>
<path d="M4300 4050 c0 -5 5 -10 10 -10 6 0 10 5 10 10 0 6 -4 10 -10 10 -5 0
-10 -4 -10 -10z"/>
<path d="M4260 4030 c0 -5 7 -10 15 -10 8 0 15 5 15 10 0 6 -7 10 -15 10 -8 0
-15 -4 -15 -10z"/>
<path d="M4190 4000 c0 -5 11 -10 25 -10 14 0 25 5 25 10 0 6 -11 10 -25 10
-14 0 -25 -4 -25 -10z"/>
<path d="M4130 3970 c0 -5 11 -10 25 -10 14 0 25 5 25 10 0 6 -11 10 -25 10
-14 0 -25 -4 -25 -10z"/>
<path d="M4020 3940 c0 -5 18 -10 40 -10 22 0 40 5 40 10 0 6 -18 10 -40 10
-22 0 -40 -4 -40 -10z"/>
<path d="M8310 3285 c0 -16 6 -25 15 -25 9 0 15 9 15 25 0 16 -6 25 -15 25 -9
0 -15 -9 -15 -25z"/>
<path d="M3778 10793 c7 -3 16 -2 19 1 4 3 -2 6 -13 5 -11 0 -14 -3 -6 -6z"/>
<path d="M8420 10671 c0 -17 12 -41 21 -41 5 0 9 11 9 25 0 16 -6 25 -15 25
-8 0 -15 -4 -15 -9z"/>
<path d="M8427 10563 c-12 -11 -8 -23 8 -23 8 0 15 7 15 15 0 16 -12 20 -23 8z"/>
<path d="M9107 10143 c-4 -3 -7 -24 -7 -45 0 -21 -4 -38 -10 -38 -5 0 -10 -13
-10 -30 0 -16 4 -30 10 -30 5 0 12 -11 16 -25 4 -18 13 -25 30 -25 24 0 24 1
24 100 0 98 0 100 -23 100 -13 0 -27 -3 -30 -7z"/>
<path d="M2680 3675 c0 -63 4 -115 9 -115 4 0 12 -31 15 -70 4 -38 11 -70 15
-70 5 0 11 -37 13 -82 3 -49 10 -84 16 -86 8 -2 12 -32 12 -82 0 -60 3 -79 15
-84 9 -3 15 -18 15 -40 0 -21 6 -36 15 -40 8 -3 15 -17 15 -31 0 -14 4 -25 9
-25 11 0 21 35 21 77 0 17 6 34 13 36 9 4 8 8 -3 16 -10 7 -11 11 -2 11 6 0
12 7 12 15 0 8 -4 15 -9 15 -5 0 -11 47 -13 105 -2 65 -7 109 -14 113 -7 4
-13 42 -16 86 -2 51 -8 81 -16 84 -7 2 -12 21 -12 42 0 21 -5 40 -11 42 -5 2
-13 22 -16 46 -3 23 -9 42 -13 42 -4 0 -10 18 -14 40 -3 22 -11 40 -16 40 -6
0 -10 7 -10 15 0 8 -7 15 -15 15 -12 0 -15 -19 -15 -115z"/>
<path d="M2660 3435 c0 -8 5 -15 10 -15 6 0 10 7 10 15 0 8 -4 15 -10 15 -5 0
-10 -7 -10 -15z"/>
<path d="M4908 2583 c-22 -5 -24 -23 -3 -23 8 0 15 -7 15 -15 0 -11 11 -15 40
-15 27 0 43 -5 46 -15 5 -11 24 -15 81 -15 53 0 79 4 89 15 9 8 29 15 45 15
16 0 29 4 29 9 0 10 -74 21 -146 21 -29 0 -54 4 -56 9 -3 9 -113 20 -140 14z"/>
</g>
</svg>
