<?xml version="1.0" standalone="no"?>
<!DOCTYPE svg PUBLIC "-//W3C//DTD SVG 20010904//EN"
 "http://www.w3.org/TR/2001/REC-SVG-20010904/DTD/svg10.dtd">
<svg version="1.0" xmlns="http://www.w3.org/2000/svg"
 width="400.000000pt" height="400.000000pt" viewBox="0 0 400.000000 400.000000"
 preserveAspectRatio="xMidYMid meet">
<metadata>
Created by potrace 1.14, written by Peter Selinger 2001-2017
</metadata>
<g transform="translate(0.000000,400.000000) scale(0.100000,-0.100000)"
fill="#000000" stroke="none">
<path d="M1938 3993 c7 -3 16 -2 19 1 4 3 -2 6 -13 5 -11 0 -14 -3 -6 -6z"/>
<path d="M2118 3983 c7 -3 16 -2 19 1 4 3 -2 6 -13 5 -11 0 -14 -3 -6 -6z"/>
<path d="M2158 3973 c7 -3 16 -2 19 1 4 3 -2 6 -13 5 -11 0 -14 -3 -6 -6z"/>
<path d="M2262 3936 c16 -8 34 -18 40 -21 7 -4 2 3 -12 14 -14 11 -32 21 -40
21 -8 0 -3 -7 12 -14z"/>
<path d="M1699 3899 l-24 -20 30 17 c39 24 40 24 28 24 -6 0 -21 -9 -34 -21z"/>
<path d="M2320 3906 c0 -2 7 -7 16 -10 8 -3 12 -2 9 4 -6 10 -25 14 -25 6z"/>
<path d="M1626 3841 l-30 -36 34 32 c19 18 32 34 29 36 -2 2 -17 -12 -33 -32z"/>
<path d="M2390 3846 c0 -2 8 -10 18 -17 15 -13 16 -12 3 4 -13 16 -21 21 -21
13z"/>
<path d="M1939 3783 c-1 -4 -1 -46 0 -93 l2 -85 -20 43 c-33 70 -60 102 -86
102 l-23 0 5 -117 c7 -140 14 -166 46 -161 17 2 23 11 25 36 l3 33 23 -33 c18
-27 28 -32 52 -30 16 2 31 5 33 8 6 5 -17 231 -27 269 -8 27 -30 47 -33 28z"/>
<path d="M2048 3763 c-21 -5 -42 -98 -32 -139 22 -93 70 -132 119 -100 32 21
37 90 14 178 -16 60 -43 77 -101 61z m51 -85 c17 -67 22 -106 12 -112 -13 -8
-30 38 -37 99 -8 66 8 74 25 13z"/>
<path d="M2484 3735 c35 -51 42 -57 23 -19 -9 17 -23 37 -33 44 -9 8 -4 -3 10
-25z"/>
<path d="M1494 3652 c4 -6 -1 -24 -10 -39 l-16 -28 21 25 c24 29 25 36 9 46
-7 4 -8 3 -4 -4z"/>
<path d="M2551 3584 c0 -11 3 -14 6 -6 3 7 2 16 -1 19 -3 4 -6 -2 -5 -13z"/>
<path d="M1456 3532 c-2 -4 -1 -14 4 -22 7 -11 9 -9 7 8 -1 24 -3 26 -11 14z"/>
<path d="M2336 3413 c8 -100 12 -115 32 -111 14 3 16 13 14 53 -5 98 -12 125
-33 125 -16 0 -18 -6 -13 -67z"/>
<path d="M1452 3430 c0 -14 2 -19 5 -12 2 6 2 18 0 25 -3 6 -5 1 -5 -13z"/>
<path d="M2124 3438 c-11 -17 -18 -151 -10 -192 9 -45 36 -50 36 -6 0 34 15
40 23 10 3 -11 10 -20 16 -20 22 0 24 32 6 98 -28 105 -52 142 -71 110z"/>
<path d="M2214 3437 c-8 -21 22 -185 36 -202 8 -10 22 -13 39 -9 38 9 46 21
24 33 -14 7 -22 25 -26 58 -9 72 -30 127 -50 131 -9 2 -20 -3 -23 -11z"/>
<path d="M2049 3435 c-1 -6 -1 -37 0 -70 l1 -60 -15 35 c-19 42 -44 70 -62 70
-10 0 -13 -19 -13 -77 0 -97 7 -123 31 -123 14 0 19 7 19 28 l1 27 17 -27 c18
-30 43 -36 59 -15 12 15 -10 194 -26 210 -6 6 -12 7 -12 2z"/>
<path d="M1855 3416 c-16 -12 -20 -26 -19 -78 0 -112 37 -175 84 -146 26 17
29 26 23 81 -4 36 -10 47 -23 47 -15 0 -17 -7 -12 -45 6 -59 -4 -58 -17 3 -5
26 -13 56 -17 67 -7 18 -6 19 10 6 23 -19 38 -2 34 40 -3 39 -30 49 -63 25z"/>
<path d="M1760 3378 c0 -12 5 -61 11 -110 11 -83 13 -88 35 -88 27 0 27 -2 15
71 -5 30 -12 75 -16 102 -5 38 -10 47 -26 47 -13 0 -19 -7 -19 -22z"/>
<path d="M1447 3371 c-4 -17 -3 -21 5 -13 5 5 8 16 6 23 -3 8 -7 3 -11 -10z"/>
<path d="M1672 3378 c-17 -17 -15 -33 13 -88 14 -27 25 -60 25 -72 -1 -22 -1
-23 -15 -4 -21 27 -42 8 -26 -23 22 -41 76 -18 85 35 4 23 -2 42 -25 77 -25
38 -28 50 -19 67 9 17 8 20 -8 20 -10 0 -23 -5 -30 -12z"/>
<path d="M2551 3314 c0 -11 3 -14 6 -6 3 7 2 16 -1 19 -3 4 -6 -2 -5 -13z"/>
<path d="M1456 3274 c-4 -9 -4 -19 -1 -22 2 -3 7 3 11 12 4 9 4 19 1 22 -2 3
-7 -3 -11 -12z"/>
<path d="M2351 3281 c-19 -12 -6 -43 16 -39 21 4 31 48 11 48 -7 0 -19 -4 -27
-9z"/>
<path d="M2820 3106 c0 -2 14 -14 30 -26 17 -12 30 -19 30 -16 0 2 -13 14 -30
26 -16 12 -30 19 -30 16z"/>
<path d="M962 2895 c-6 -14 -10 -25 -8 -25 2 0 11 11 20 25 9 14 13 25 8 25
-5 0 -14 -11 -20 -25z"/>
<path d="M890 2841 c0 -6 4 -13 10 -16 6 -3 7 1 4 9 -7 18 -14 21 -14 7z"/>
<path d="M3140 2784 c0 -5 7 -18 15 -28 8 -11 15 -16 15 -10 0 5 -7 18 -15 28
-8 11 -15 16 -15 10z"/>
<path d="M3175 2720 c3 -5 8 -10 11 -10 2 0 4 5 4 10 0 6 -5 10 -11 10 -5 0
-7 -4 -4 -10z"/>
<path d="M1855 2524 c-22 -16 -49 -19 -40 -4 4 6 -10 10 -34 10 -36 0 -41 -3
-41 -24 0 -22 -4 -23 -56 -25 -44 -1 -68 -8 -116 -36 -33 -20 -76 -42 -95 -50
-33 -14 -35 -14 -29 3 6 16 -22 -13 -68 -68 -28 -35 -64 -119 -82 -193 l-17
-67 -113 0 c-113 0 -114 0 -114 -23 0 -13 9 -32 20 -42 28 -25 25 -33 -12 -37
-33 -3 -33 -3 -36 -63 -3 -55 -6 -63 -38 -90 -24 -21 -37 -41 -41 -67 -5 -32
-1 -41 25 -68 39 -38 88 -41 128 -6 33 28 39 86 11 113 -12 12 -17 13 -17 5 0
-7 -5 -10 -10 -7 -6 4 -8 10 -5 15 3 5 -2 13 -10 18 -12 6 -15 21 -13 61 l3
53 48 3 c69 4 75 16 30 59 l-38 36 90 0 90 0 -3 -177 c-3 -146 -1 -184 13
-220 22 -57 58 -99 109 -126 39 -21 55 -22 296 -25 147 -2 248 -7 240 -12 -12
-7 -12 -11 0 -25 12 -14 12 -18 -1 -26 -12 -8 -12 -10 0 -18 13 -8 13 -12 0
-27 -11 -13 -11 -18 -1 -21 17 -6 15 -27 -5 -44 -10 -8 -50 -25 -90 -38 -45
-15 -86 -37 -109 -57 -20 -19 -40 -34 -44 -34 -4 0 -18 -14 -30 -31 -16 -20
-30 -29 -42 -26 -10 3 -22 -2 -27 -11 -9 -15 -14 -12 -40 18 -17 19 -30 39
-31 43 -1 20 -107 119 -157 147 -158 89 -313 13 -313 -154 0 -52 61 -304 77
-315 4 -3 9 -28 11 -54 3 -38 -1 -52 -15 -63 -27 -20 -52 -17 -111 13 -52 26
-158 120 -148 130 3 3 -1 12 -9 19 -15 15 -35 98 -35 147 0 47 -11 78 -24 70
-7 -3 -6 -1 1 7 10 11 9 17 -4 32 -14 15 -14 20 -2 35 13 16 12 17 -3 5 -14
-11 -18 -10 -27 6 -17 31 -95 65 -141 60 -23 -2 -40 1 -40 7 0 5 -4 3 -10 -5
-5 -8 -12 -11 -16 -8 -22 23 -164 -102 -164 -144 0 -13 -9 -19 -27 -20 -16 -1
-45 -2 -65 -4 -72 -4 -152 -55 -184 -117 -17 -31 -30 -131 -14 -107 8 12 13
11 37 -11 16 -16 45 -29 70 -33 l41 -6 16 47 c23 67 41 83 93 83 24 0 57 -7
73 -15 36 -18 55 -70 40 -109 -9 -24 -6 -31 23 -60 30 -30 92 -66 115 -66 14
0 24 64 23 143 -2 76 -26 137 -67 170 -13 10 -22 23 -19 28 4 5 0 7 -7 4 -7
-3 -19 -1 -27 4 -11 7 -10 14 5 37 27 42 46 55 77 51 15 -2 27 1 27 7 0 6 5 4
10 -4 5 -8 10 -10 10 -5 0 6 11 -3 24 -18 24 -28 46 -102 46 -154 0 -66 56
-178 117 -234 83 -76 196 -129 272 -129 47 0 109 36 138 79 18 26 23 48 23 97
0 52 3 62 15 58 8 -4 12 -11 8 -17 -4 -6 -1 -7 7 -2 10 6 9 11 -5 21 -10 7
-21 15 -25 16 -10 4 -100 292 -100 319 0 46 12 68 42 78 66 23 176 -58 263
-195 31 -48 34 -58 28 -104 -5 -46 -4 -50 15 -50 18 0 19 -4 12 -37 -4 -21
-11 -61 -14 -89 l-6 -52 82 -26 c273 -87 596 -89 856 -6 119 38 115 34 108
116 -6 66 -5 72 13 77 17 4 25 -5 46 -48 26 -57 30 -71 18 -78 -5 -2 -2 -2 5
-1 6 2 12 -1 12 -6 0 -10 28 -78 57 -138 9 -18 31 -50 49 -71 18 -21 31 -40
29 -43 -5 -4 9 -7 93 -14 51 -5 70 -2 108 16 86 42 131 132 126 255 -2 55 -30
218 -43 250 -46 114 -45 182 4 219 22 16 32 18 54 10 27 -9 37 -25 92 -142 24
-50 78 -110 120 -131 76 -39 165 -6 201 74 31 67 28 130 -12 208 -11 22 -18
40 -16 41 42 30 65 43 76 40 7 -1 8 0 2 3 -6 3 -3 15 8 31 31 46 42 81 42 133
0 52 -25 155 -39 164 -14 8 -68 -24 -100 -61 -32 -36 -39 -58 -21 -69 14 -9 2
-75 -19 -99 -19 -22 -72 -46 -102 -46 -31 0 -74 35 -94 76 -11 24 -21 34 -32
30 -8 -3 -21 -6 -29 -6 -8 0 -32 -16 -53 -36 -36 -31 -39 -38 -30 -61 5 -14 8
-27 7 -28 -2 -2 -22 -5 -45 -9 -48 -6 -75 -22 -115 -65 -36 -38 -48 -71 -48
-136 0 -55 33 -243 50 -283 6 -13 13 -52 16 -86 7 -77 -19 -147 -65 -170 -26
-14 -30 -13 -64 15 -21 17 -37 37 -37 46 0 8 -6 27 -14 41 -8 15 -22 47 -32
72 -10 25 -21 47 -24 50 -3 3 -23 40 -44 83 -52 103 -101 150 -205 197 -14 6
-30 9 -36 6 -7 -2 -36 20 -66 51 -54 55 -95 83 -124 83 -8 0 -15 4 -15 8 0 10
-68 36 -94 37 -11 0 -21 5 -23 11 -3 9 -13 9 -38 1 -25 -7 -41 -7 -57 1 -20 9
-17 11 25 11 39 1 47 4 47 20 0 11 6 22 13 25 10 5 10 7 0 12 -7 3 -13 12 -13
19 0 7 6 16 13 19 10 5 10 7 0 12 -7 3 -13 12 -13 19 0 7 6 16 13 18 9 4 8 8
-3 16 -11 8 50 11 213 11 133 0 246 5 272 11 54 14 119 67 146 121 18 36 20
58 19 219 l0 178 102 3 103 3 3 51 c3 44 -1 56 -24 83 l-27 32 59 60 c54 55
60 58 95 53 45 -7 74 7 95 47 20 39 11 82 -23 109 -41 32 -70 26 -90 -17 -10
-21 -25 -38 -33 -38 -11 0 -15 -11 -15 -37 0 -33 -9 -46 -70 -108 l-69 -70 32
-33 c22 -23 32 -42 32 -65 l0 -32 -84 0 -85 0 -6 58 c-9 71 -33 160 -47 168
-6 4 -8 -2 -4 -17 5 -21 5 -21 -3 -4 -5 11 -15 34 -21 52 -15 39 -106 127
-122 117 -6 -4 -8 -3 -5 3 8 13 -50 46 -65 37 -6 -4 -8 -3 -5 3 8 13 -38 28
-151 52 -78 16 -95 16 -107 5 -10 -10 -31 -12 -77 -8 -96 8 -123 11 -128 14
-3 1 -37 3 -75 5 -49 2 -77 -2 -90 -11z m-10 -134 c0 -16 -6 -26 -19 -28 -25
-5 -39 12 -31 38 10 31 50 24 50 -10z m353 2 c4 -28 -24 -40 -45 -19 -14 13
-14 19 -3 32 18 22 44 15 48 -13z m-418 -261 c18 -35 12 -115 -12 -151 -36
-52 -71 -73 -130 -77 -72 -5 -124 25 -156 89 -13 26 -21 52 -17 58 11 18 107
63 175 81 88 24 127 24 140 0z m584 3 c33 -9 89 -30 124 -47 71 -35 77 -52 39
-108 -53 -79 -142 -101 -222 -56 -68 38 -103 136 -73 202 14 30 42 32 132 9z
m-179 -359 c6 -2 -24 -3 -65 -3 -48 0 -64 3 -45 7 28 6 88 4 110 -4z m205 5
c0 -5 -10 -10 -22 -9 -22 0 -22 1 -3 9 11 5 21 9 23 9 1 1 2 -3 2 -9z m25 0
c3 -5 1 -10 -4 -10 -6 0 -11 5 -11 10 0 6 2 10 4 10 3 0 8 -4 11 -10z m105 -6
c0 -2 -21 -4 -47 -3 -37 1 -42 3 -23 8 24 7 70 3 70 -5z m50 6 c0 -5 -8 -10
-17 -10 -15 0 -16 2 -3 10 19 12 20 12 20 0z m-617 -7 c-7 -2 -19 -2 -25 0 -7
3 -2 5 12 5 14 0 19 -2 13 -5z m274 1 c-3 -3 -12 -4 -19 -1 -8 3 -5 6 6 6 11
1 17 -2 13 -5z m-554 -141 c-7 -2 -19 -2 -25 0 -7 3 -2 5 12 5 14 0 19 -2 13
-5z m379 0 c-62 -2 -161 -2 -220 0 -59 1 -8 3 113 3 121 0 169 -2 107 -3z
m356 0 c-42 -2 -114 -2 -160 0 -46 1 -11 3 77 3 88 0 125 -2 83 -3z m772 -233
c0 -5 -2 -10 -4 -10 -3 0 -8 5 -11 10 -3 6 -1 10 4 10 6 0 11 -4 11 -10z m200
-197 c11 -10 20 -25 20 -34 0 -9 6 -22 14 -28 11 -9 12 -18 3 -41 -6 -17 -17
-30 -23 -30 -7 0 -15 -6 -17 -12 -3 -8 -6 -7 -6 4 -1 9 -9 19 -18 22 -15 5
-33 38 -70 125 -7 15 79 9 97 -6z m-1515 -228 c0 -23 -34 -33 -45 -14 -13 20
1 40 24 37 13 -2 21 -10 21 -23z m350 0 c0 -13 -8 -21 -22 -23 -17 -3 -23 2
-23 16 0 10 3 22 7 26 13 13 38 1 38 -19z"/>
<path d="M3151 1134 c0 -11 3 -14 6 -6 3 7 2 16 -1 19 -3 4 -6 -2 -5 -13z"/>
<path d="M1046 997 c3 -10 9 -15 12 -12 3 3 0 11 -7 18 -10 9 -11 8 -5 -6z"/>
</g>
</svg>
